<?xml version="1.0" encoding="UTF-8"?>
<svg version="1.1" xmlns="http://www.w3.org/2000/svg" width="300" height="150">
<path d="M0 0 C0.38063221 2.3260857 0.71269945 4.66055264 1 7 C0.67 7.33 0.34 7.66 0 8 C-0.21928346 9.68611203 -0.42525546 11.37396183 -0.625 13.0625 C-1.55152223 18.58572166 -3.49062248 21.46688942 -7.44140625 25.34375 C-9.24132526 27.02422542 -9.24132526 27.02422542 -10 30 C-12.0625 30.6875 -12.0625 30.6875 -14 31 C-13.525625 31.433125 -13.05125 31.86625 -12.5625 32.3125 C-10.32750603 34.72629349 -10.01963516 36.83964618 -9.625 40.0625 C-10.42191468 48.43010416 -15.64079586 56.57597294 -22 62 C-26.10297414 63.14912741 -30.07241471 63.10212697 -34.3125 63.0625 C-35.56675781 63.05347656 -36.82101563 63.04445313 -38.11328125 63.03515625 C-39.06589844 63.02355469 -40.01851562 63.01195313 -41 63 C-41.20496094 62.37351563 -41.40992188 61.74703125 -41.62109375 61.1015625 C-41.89050781 60.28429687 -42.15992188 59.46703125 -42.4375 58.625 C-42.70433594 57.81289062 -42.97117188 57.00078125 -43.24609375 56.1640625 C-43.95179729 53.98968201 -43.95179729 53.98968201 -45 52 C-46.31858428 53.26451932 -47.62967631 54.53685475 -48.9375 55.8125 C-49.66839844 56.52019531 -50.39929688 57.22789063 -51.15234375 57.95703125 C-53.20834646 59.95536163 -53.20834646 59.95536163 -54 63 C-56.8125 64.0625 -56.8125 64.0625 -60 65 C-62.55535302 66.16816138 -64.64327546 67.4288503 -67 69 C-69.48046875 69.1953125 -69.48046875 69.1953125 -72.1875 69.125 C-73.08855469 69.10695313 -73.98960938 69.08890625 -74.91796875 69.0703125 C-75.60503906 69.04710938 -76.29210937 69.02390625 -77 69 C-77 68.34 -77 67.68 -77 67 C-77.78375 66.9175 -78.5675 66.835 -79.375 66.75 C-82 66 -82 66 -83.3125 64.125 C-84 62 -84 62 -84 59 C-77.565 58.505 -77.565 58.505 -71 58 C-71 57.34 -71 56.68 -71 56 C-62.72330173 52.12311519 -62.72330173 52.12311519 -59.0625 51.5 C-58.0415625 51.2525 -58.0415625 51.2525 -57 51 C-56.30062468 49.68352881 -55.63270867 48.34977849 -55 47 C-54.08154297 46.80083984 -54.08154297 46.80083984 -53.14453125 46.59765625 C-50.3952526 45.83146384 -49.51464329 44.64330412 -47.75 42.4375 C-47.22921875 41.79683594 -46.7084375 41.15617187 -46.171875 40.49609375 C-45.78515625 40.00238281 -45.3984375 39.50867188 -45 39 C-45.99 38.34 -46.98 37.68 -48 37 C-50.33141755 34.93759216 -50.9807173 34.05784811 -52 31 C-52.28800092 25.04798091 -51.67186255 21.3437251 -49 16 C-47.27388849 14.48586709 -45.48641051 13.06431903 -43.69140625 11.6328125 C-41.89908573 10.0842707 -41.89908573 10.0842707 -40.97265625 7.94140625 C-39.34916226 4.70093833 -36.2820294 3.21789593 -33 2 C-31.05046408 1.7174291 -29.09928463 1.44043658 -27.140625 1.23022461 C-25.09574696 1.0102976 -23.06940705 0.73123586 -21.03515625 0.4296875 C-13.84031872 -0.59076842 -7.22457223 -1.29010218 0 0 Z M-28 7 C-28 7.66 -28 8.32 -28 9 C-28.680625 9.20625 -29.36125 9.4125 -30.0625 9.625 C-35.48274563 12.16213625 -40.73434346 16.33585864 -43 22 C-42.76167267 25.03867345 -42.3610499 27.27790019 -41 30 C-38.97536745 30.65213292 -38.97536745 30.65213292 -37 31 C-36.47792969 30.33355469 -35.95585938 29.66710937 -35.41796875 28.98046875 C-30.31180782 22.58658947 -25.00679063 16.94391712 -18.9921875 11.41015625 C-16.70937381 9.22068431 -16.70937381 9.22068431 -17.1953125 6.68359375 C-17.46085937 6.12800781 -17.72640625 5.57242188 -18 5 C-21.85645121 4.77963136 -24.49223216 5.39644899 -28 7 Z M-2 5 C-1 8 -1 8 -1 8 Z M-11 9 C-11 10.98 -11 12.96 -11 15 C-10.67 15 -10.34 15 -10 15 C-10 13.02 -10 11.04 -10 9 C-10.33 9 -10.66 9 -11 9 Z M-19.921875 15.80859375 C-22.64968452 18.75795933 -22.64968452 18.75795933 -25 22 C-24.67 22.99 -24.34 23.98 -24 25 C-20.54074837 23.7508258 -17.85306797 22.32472205 -15 20 C-14.34 20.33 -13.68 20.66 -13 21 C-10.63307034 18.15173402 -10.63307034 18.15173402 -11.375 14.8125 C-11.58125 13.884375 -11.7875 12.95625 -12 12 C-15.27490311 12 -17.61975256 13.64216552 -19.921875 15.80859375 Z M-44 26 C-43 28 -43 28 -43 28 Z M-28 26 C-27 28 -27 28 -27 28 Z M-42 33 C-41.67 33.66 -41.34 34.32 -41 35 C-40.67 34.34 -40.34 33.68 -40 33 C-40.66 33 -41.32 33 -42 33 Z M-27 33 C-28.98 33.99 -28.98 33.99 -31 35 C-28.69 35 -26.38 35 -24 35 C-24.99 34.34 -25.98 33.68 -27 33 Z M-48 35 C-44 36 -44 36 -44 36 Z M-28 35.0625 C-29.051875 35.11535156 -30.10375 35.16820312 -31.1875 35.22265625 C-34.16954 35.74929076 -34.16954 35.74929076 -35.82421875 38.30078125 C-37.46742798 42.07306556 -37.80062121 44.87950492 -38 49 C-37.01 50.485 -37.01 50.485 -36 52 C-29.61233934 52.10101615 -29.61233934 52.10101615 -24.0625 49.4375 C-23.711875 48.963125 -23.36125 48.48875 -23 48 C-22.34 48.33 -21.68 48.66 -21 49 C-18.38161391 45.07242087 -18.63207345 41.56228926 -19 37 C-22.53938094 34.6404127 -23.84291827 34.78230454 -28 35.0625 Z " fill="#D5A71A" transform="translate(141,35)"/>
<path d="M0 0 C2.97 0.495 2.97 0.495 6 1 C5.67 2.216875 5.34 3.43375 5 4.6875 C3.62111435 10.7662494 3.82754634 16.80124915 4 23 C4.78375 22.071875 5.5675 21.14375 6.375 20.1875 C6.81585938 19.66542969 7.25671875 19.14335938 7.7109375 18.60546875 C8.89201099 17.1344954 9.95358529 15.56962206 11 14 C11.99 14.99 11.99 14.99 13 16 C10.14067344 22.17012573 6.42062658 28.7292033 1 33 C-2.25 33.75 -2.25 33.75 -5 34 C-5 34.66 -5 35.32 -5 36 C-10.37305699 36.44041451 -10.37305699 36.44041451 -13 36 C-15 33.5 -15 33.5 -16 31 C-16.598125 31.598125 -17.19625 32.19625 -17.8125 32.8125 C-18.534375 33.534375 -19.25625 34.25625 -20 35 C-20.4021875 35.5259375 -20.804375 36.051875 -21.21875 36.59375 C-23.89613833 38.70747763 -26.32981096 38.52127777 -29.6875 38.6875 C-31.45673828 38.78611328 -31.45673828 38.78611328 -33.26171875 38.88671875 C-34.61716797 38.94279297 -34.61716797 38.94279297 -36 39 C-38.2344598 34.96707255 -38.54496743 31.55032566 -39 27 C-40.96476155 29.32199093 -41.99260563 30.9732665 -42.8125 33.9375 C-44.32187006 37.83008595 -46.30386065 40.14444826 -50 42 C-53.33525126 42.67700623 -56.60122054 42.92611349 -60 43 C-62.0411864 38.79005305 -62.60090475 35.65701183 -62 31 C-59.43734708 25.20907003 -56.27229949 19.69952944 -52 15 C-51.46375 14.21625 -50.9275 13.4325 -50.375 12.625 C-46.95909441 10.28780144 -44.3261175 10.99747866 -40.33984375 11.54296875 C-38 12 -38 12 -35 13 C-35 13.99 -35 14.98 -35 16 C-34.071875 15.505 -33.14375 15.01 -32.1875 14.5 C-29 13 -29 13 -26 13 C-25.54625 12.0925 -25.0925 11.185 -24.625 10.25 C-23.41666667 7.83333333 -22.20833333 5.41666667 -21 3 C-19.68 3.33 -18.36 3.66 -17 4 C-17.66 11.59 -18.32 19.18 -19 27 C-15.92137906 24.34249037 -15.92137906 24.34249037 -15.0625 21.4375 C-13.76560622 18.4622731 -12.88607508 18.27326842 -10 17 C-6.69387654 14.127682 -5.0249884 11.38341132 -3.3125 7.375 C-2.89613281 6.41335937 -2.47976562 5.45171875 -2.05078125 4.4609375 C-1.53064453 3.24277344 -1.53064453 3.24277344 -1 2 C-0.67 1.34 -0.34 0.68 0 0 Z M-3 14 C-4.0536394 15.30756357 -5.06853634 16.64651756 -6.0625 18 C-6.61035156 18.7425 -7.15820312 19.485 -7.72265625 20.25 C-8.35494141 21.11625 -8.35494141 21.11625 -9 22 C-8.34 23.32 -7.68 24.64 -7 26 C-4.69857565 24.21825212 -3.19965609 22.83695835 -2.51171875 19.953125 C-2.27676898 17.9753389 -2.13248542 15.98728128 -2 14 C-2.33 14 -2.66 14 -3 14 Z M-46 18 C-51.19541637 23.17441586 -51.19541637 23.17441586 -53 30 C-52.34 30.66 -51.68 31.32 -51 32 C-49.01633305 32.13306157 -49.01633305 32.13306157 -47 31 C-43.71251664 27.12102836 -43.71251664 27.12102836 -43.125 22.25 C-43.88634838 19.84515921 -43.88634838 19.84515921 -46 18 Z M-26 19 C-26.33 19.66 -26.66 20.32 -27 21 C-26.10836423 23.11683841 -26.10836423 23.11683841 -25 25 C-25 23.02 -25 21.04 -25 19 C-25.33 19 -25.66 19 -26 19 Z M-13 19 C-12 21 -12 21 -12 21 Z M-29 23 C-29.66 24.32 -30.32 25.64 -31 27 C-29.02 27.99 -29.02 27.99 -27 29 C-26.67 27.68 -26.34 26.36 -26 25 C-26.99 24.34 -27.98 23.68 -29 23 Z M-10 24 C-9 27 -9 27 -9 27 Z M-32 27 C-31 29 -31 29 -31 29 Z M-54 30 C-53 33 -53 33 -53 33 Z " fill="#DBAD18" transform="translate(197,36)"/>
<path d="M0 0 C0.38063221 2.3260857 0.71269945 4.66055264 1 7 C0.67 7.33 0.34 7.66 0 8 C-0.21928346 9.68611203 -0.42525546 11.37396183 -0.625 13.0625 C-1.55152223 18.58572166 -3.49062248 21.46688942 -7.44140625 25.34375 C-9.24132526 27.02422542 -9.24132526 27.02422542 -10 30 C-12.0625 30.6875 -12.0625 30.6875 -14 31 C-13.525625 31.433125 -13.05125 31.86625 -12.5625 32.3125 C-9.37009239 35.76030022 -9.84089076 39.54494126 -10 44 C-11 47 -11 47 -13 48 C-14.99960012 48.039992 -17.00047242 48.04346799 -19 48 C-20 45 -20 45 -19.8125 41.0625 C-19.74544739 37.75253946 -19.81592724 37.23009096 -22 34.5 C-22.66 34.005 -23.32 33.51 -24 33 C-24.99 33.495 -24.99 33.495 -26 34 C-25.505 31.03 -25.505 31.03 -25 28 C-24.34 28 -23.68 28 -23 28 C-23 27.34 -23 26.68 -23 26 C-24.7015625 26.0309375 -24.7015625 26.0309375 -26.4375 26.0625 C-30 26 -30 26 -31 25 C-31 22 -31 22 -29.80664062 20.51367188 C-29.26201172 20.00384766 -28.71738281 19.49402344 -28.15625 18.96875 C-27.27646484 18.12376953 -27.27646484 18.12376953 -26.37890625 17.26171875 C-25.12630208 16.08723958 -23.87369792 14.91276042 -22.62109375 13.73828125 C-21.74130859 12.89330078 -21.74130859 12.89330078 -20.84375 12.03125 C-20.29912109 11.52142578 -19.75449219 11.01160156 -19.19335938 10.48632812 C-17.68696569 8.92780201 -17.68696569 8.92780201 -18 6 C-18.75925781 6.08378906 -19.51851562 6.16757812 -20.30078125 6.25390625 C-21.29464844 6.35574219 -22.28851563 6.45757812 -23.3125 6.5625 C-24.29863281 6.66691406 -25.28476563 6.77132812 -26.30078125 6.87890625 C-29 7 -29 7 -32 6 C-34.14255793 6.38932856 -34.14255793 6.38932856 -36 7 C-35.67 5.68 -35.34 4.36 -35 3 C-23.62406656 0.42947658 -11.60269326 -2.07190951 0 0 Z M-2 5 C-1 8 -1 8 -1 8 Z M-11 9 C-11 10.98 -11 12.96 -11 15 C-10.67 15 -10.34 15 -10 15 C-10 13.02 -10 11.04 -10 9 C-10.33 9 -10.66 9 -11 9 Z M-19.921875 15.80859375 C-22.64968452 18.75795933 -22.64968452 18.75795933 -25 22 C-24.67 22.99 -24.34 23.98 -24 25 C-20.54074837 23.7508258 -17.85306797 22.32472205 -15 20 C-14.34 20.33 -13.68 20.66 -13 21 C-10.63307034 18.15173402 -10.63307034 18.15173402 -11.375 14.8125 C-11.58125 13.884375 -11.7875 12.95625 -12 12 C-15.27490311 12 -17.61975256 13.64216552 -19.921875 15.80859375 Z M-38 5 C-37.34 5.33 -36.68 5.66 -36 6 C-36.33 6.99 -36.66 7.98 -37 9 C-37.66 9 -38.32 9 -39 9 C-39.33 9.66 -39.66 10.32 -40 11 C-40.66 10.67 -41.32 10.34 -42 10 C-40.25 6.125 -40.25 6.125 -38 5 Z " fill="#CDA31A" transform="translate(141,35)"/>
<path d="M0 0 C0.94037109 -0.03287109 1.88074219 -0.06574219 2.84960938 -0.09960938 C5.39605863 -0.11963149 7.69475179 -0.08535204 10.1875 0.4375 C12.26171875 2.83984375 12.26171875 2.83984375 13.1875 5.4375 C13.6825 6.4275 13.6825 6.4275 14.1875 7.4375 C8.4375 7.5625 8.4375 7.5625 6.1875 6.4375 C3.64134991 6.20577173 1.11353775 6.01855471 -1.4375 5.875 C-2.14390625 5.83181641 -2.8503125 5.78863281 -3.578125 5.74414062 C-5.32268537 5.63805249 -7.06756697 5.53727111 -8.8125 5.4375 C-8.8125 6.0975 -8.8125 6.7575 -8.8125 7.4375 C-9.56015625 7.54707031 -10.3078125 7.65664062 -11.078125 7.76953125 C-12.06296875 7.92808594 -13.0478125 8.08664063 -14.0625 8.25 C-15.03703125 8.40082031 -16.0115625 8.55164063 -17.015625 8.70703125 C-20.03437148 9.49544688 -21.46513195 10.42345821 -23.8125 12.4375 C-27.44736621 15.46756318 -31.0885367 17.86535974 -35.25 20.125 C-36.34183594 20.72699219 -37.43367188 21.32898438 -38.55859375 21.94921875 C-41.73189421 23.40063229 -44.39250925 23.91096905 -47.8125 24.4375 C-48.4725 25.0975 -49.1325 25.7575 -49.8125 26.4375 C-52.31855579 28.94355579 -54.15236054 28.81784667 -57.5703125 29.15234375 C-59.72364758 29.42619995 -61.66209701 29.91912427 -63.75 30.5 C-70.94894568 32.17766734 -78.47333644 31.674127 -85.8125 31.4375 C-87.24142578 31.39302734 -87.24142578 31.39302734 -88.69921875 31.34765625 C-93.72855409 30.99756669 -97.01807386 29.76919125 -100.8125 26.4375 C-102.125 23.875 -102.125 23.875 -102.8125 21.4375 C-103.1425 20.4475 -103.4725 19.4575 -103.8125 18.4375 C-100.65134224 19.80733503 -99.8197908 20.4265638 -97.8125 23.4375 C-94.72884129 23.6877157 -94.72884129 23.6877157 -91.8125 23.4375 C-92.1425 24.0975 -92.4725 24.7575 -92.8125 25.4375 C-89.83308002 25.49205703 -86.85468469 25.53143851 -83.875 25.5625 C-83.04419922 25.57925781 -82.21339844 25.59601563 -81.35742188 25.61328125 C-75.53744733 25.65857288 -70.4528877 24.8831695 -64.8125 23.4375 C-64.8125 22.7775 -64.8125 22.1175 -64.8125 21.4375 C-61.8425 21.1075 -58.8725 20.7775 -55.8125 20.4375 C-55.8125 19.7775 -55.8125 19.1175 -55.8125 18.4375 C-55.1512915 18.11475098 -54.49008301 17.79200195 -53.80883789 17.45947266 C-50.82779456 16.00004452 -47.8513812 14.53141114 -44.875 13.0625 C-43.31362305 12.30066406 -43.31362305 12.30066406 -41.72070312 11.5234375 C-40.73134766 11.03359375 -39.74199219 10.54375 -38.72265625 10.0390625 C-37.34799194 9.36351318 -37.34799194 9.36351318 -35.94555664 8.67431641 C-33.67388049 7.61812494 -33.67388049 7.61812494 -32.8125 5.4375 C-30.8125 4.9375 -30.8125 4.9375 -27.8125 4.4375 C-26.37324191 4.13319972 -24.93586939 3.81990872 -23.5 3.5 C-22.80261719 3.34660156 -22.10523438 3.19320312 -21.38671875 3.03515625 C-19.30732935 2.55238451 -17.24703604 1.98780949 -15.1953125 1.3984375 C-10.14821263 0.13621996 -5.18160821 0.03263434 0 0 Z M-3.8125 3.4375 C-3.8125 3.7675 -3.8125 4.0975 -3.8125 4.4375 C-0.5125 4.4375 2.7875 4.4375 6.1875 4.4375 C6.1875 4.1075 6.1875 3.7775 6.1875 3.4375 C2.8875 3.4375 -0.4125 3.4375 -3.8125 3.4375 Z " fill="#3F2206" transform="translate(228.8125,78.5625)"/>
<path d="M0 0 C0.99 0.33 1.98 0.66 3 1 C3.28571429 9.57142857 3.28571429 9.57142857 1 13 C0.195625 12.979375 -0.60875 12.95875 -1.4375 12.9375 C-3.93354885 12.70366379 -3.93354885 12.70366379 -5 14 C-6.32 13.34 -7.64 12.68 -9 12 C-9.33 12.99 -9.66 13.98 -10 15 C-10.99 14.67 -11.98 14.34 -13 14 C-15.16143673 14.40297973 -17.30719532 14.89343808 -19.4375 15.4375 C-23.18616897 16.38852751 -26.11066677 17 -30 17 C-30.46148437 17.63292969 -30.92296875 18.26585938 -31.3984375 18.91796875 C-33.55740872 21.72463133 -35.18095953 21.78998726 -38.625 22.3125 C-40.09839844 22.55419922 -40.09839844 22.55419922 -41.6015625 22.80078125 C-42.78878906 22.89939453 -42.78878906 22.89939453 -44 23 C-44.33 22.67 -44.66 22.34 -45 22 C-44.9140625 20.0390625 -44.9140625 20.0390625 -44.625 17.625 C-44.48964844 16.43777344 -44.48964844 16.43777344 -44.3515625 15.2265625 C-44 13 -44 13 -43 10 C-41.02 10.66 -39.04 11.32 -37 12 C-36.34 11.34 -35.68 10.68 -35 10 C-32.67724823 9.59952556 -30.34260643 9.2602896 -28 9 C-28 8.34 -28 7.68 -28 7 C-27.113125 7.20625 -26.22625 7.4125 -25.3125 7.625 C-21.71900316 8.03181096 -20.21645126 7.47782896 -17 6 C-16.01 6 -15.02 6 -14 6 C-14 5.01 -14 4.02 -14 3 C-13.37351563 3.0721875 -12.74703125 3.144375 -12.1015625 3.21875 C-11.28429687 3.3115625 -10.46703125 3.404375 -9.625 3.5 C-8.40683594 3.63921875 -8.40683594 3.63921875 -7.1640625 3.78125 C-5.03087175 4.03352351 -5.03087175 4.03352351 -3 4 C-1.35405861 2.60411246 -1.35405861 2.60411246 0 1 C0 0.67 0 0.34 0 0 Z M-12 5 C-11 8 -11 8 -11 8 Z M-16 9 C-16.99 10.485 -16.99 10.485 -18 12 C-17.01 11.67 -16.02 11.34 -15 11 C-15.33 10.34 -15.66 9.68 -16 9 Z M-22 10 C-21.67 10.66 -21.34 11.32 -21 12 C-20.67 11.34 -20.34 10.68 -20 10 C-20.66 10 -21.32 10 -22 10 Z M-34 12 C-34.33 13.32 -34.66 14.64 -35 16 C-34.34 16 -33.68 16 -33 16 C-33.33 14.68 -33.66 13.36 -34 12 Z M-30 12 C-29 14 -29 14 -29 14 Z M-23 12 C-22 14 -22 14 -22 14 Z M-39 19 C-38 21 -38 21 -38 21 Z " fill="#C38C00" transform="translate(189,74)"/>
<path d="M0 0 C0.94037109 -0.03287109 1.88074219 -0.06574219 2.84960938 -0.09960938 C5.39605863 -0.11963149 7.69475179 -0.08535204 10.1875 0.4375 C12.26171875 2.83984375 12.26171875 2.83984375 13.1875 5.4375 C13.6825 6.4275 13.6825 6.4275 14.1875 7.4375 C8.4375 7.5625 8.4375 7.5625 6.1875 6.4375 C3.64134991 6.20577173 1.11353775 6.01855471 -1.4375 5.875 C-2.14390625 5.83181641 -2.8503125 5.78863281 -3.578125 5.74414062 C-5.32268537 5.63805249 -7.06756697 5.53727111 -8.8125 5.4375 C-8.8125 6.0975 -8.8125 6.7575 -8.8125 7.4375 C-9.56015625 7.54707031 -10.3078125 7.65664062 -11.078125 7.76953125 C-12.06296875 7.92808594 -13.0478125 8.08664063 -14.0625 8.25 C-15.03703125 8.40082031 -16.0115625 8.55164063 -17.015625 8.70703125 C-19.98028778 9.48132167 -21.5210479 10.44623814 -23.8125 12.4375 C-28.09254607 16.15438211 -31.54545704 18.482186 -37.3828125 18.40234375 C-42.3459429 18.0134945 -42.3459429 18.0134945 -44.8125 17.4375 C-45.1425 16.7775 -45.4725 16.1175 -45.8125 15.4375 C-43.8325 14.4475 -41.8525 13.4575 -39.8125 12.4375 C-39.8125 11.7775 -39.8125 11.1175 -39.8125 10.4375 C-33.1875 6.5625 -33.1875 6.5625 -29.8125 5.4375 C-29.235 5.1075 -28.6575 4.7775 -28.0625 4.4375 C-25.03425334 3.0916126 -22.09382201 2.8750096 -18.8125 2.4375 C-17.63816406 2.10621094 -16.46382812 1.77492188 -15.25390625 1.43359375 C-10.1824586 0.14376611 -5.21158232 0.03282312 0 0 Z M-3.8125 3.4375 C-3.8125 3.7675 -3.8125 4.0975 -3.8125 4.4375 C-0.5125 4.4375 2.7875 4.4375 6.1875 4.4375 C6.1875 4.1075 6.1875 3.7775 6.1875 3.4375 C2.8875 3.4375 -0.4125 3.4375 -3.8125 3.4375 Z " fill="#CC9500" transform="translate(228.8125,78.5625)"/>
<path d="M0 0 C0.33 0.66 0.66 1.32 1 2 C4.465 1.505 4.465 1.505 8 1 C5.95284366 6.80027628 2.79676227 12.07537632 -2 16 C-6.10778363 17.13776741 -10.06983648 17.10215106 -14.3125 17.0625 C-15.56675781 17.05347656 -16.82101563 17.04445313 -18.11328125 17.03515625 C-19.06589844 17.02355469 -20.01851563 17.01195313 -21 17 C-24.44419134 7.58997722 -24.44419134 7.58997722 -24 3 C-23.34 2.67 -22.68 2.34 -22 2 C-22 2.66 -22 3.32 -22 4 C-19.60280568 4.67958603 -19.60280568 4.67958603 -17 5 C-16.34 4.34 -15.68 3.68 -15 3 C-15 3.66 -15 4.32 -15 5 C-7.88044623 4.68620762 -7.88044623 4.68620762 -2 1 C-1.34 0.67 -0.68 0.34 0 0 Z " fill="#AC7C01" transform="translate(121,81)"/>
<path d="M0 0 C0.33 1.32 0.66 2.64 1 4 C1.495 3.67 1.99 3.34 2.5 3 C6.17006041 1.53197584 9.0509118 1.74522012 13 2 C13.66 2.66 14.32 3.32 15 4 C13.40065025 7.37640504 12.5928737 8.76032765 9.0625 10.1875 C8.051875 10.455625 7.04125 10.72375 6 11 C3.44464698 12.16816138 1.35672454 13.4288503 -1 15 C-3.48046875 15.1953125 -3.48046875 15.1953125 -6.1875 15.125 C-7.08855469 15.10695313 -7.98960938 15.08890625 -8.91796875 15.0703125 C-9.60503906 15.04710938 -10.29210937 15.02390625 -11 15 C-11 14.34 -11 13.68 -11 13 C-11.78375 12.9175 -12.5675 12.835 -13.375 12.75 C-16 12 -16 12 -17.3125 10.125 C-18 8 -18 8 -18 5 C-11.565 4.505 -11.565 4.505 -5 4 C-5 3.34 -5 2.68 -5 2 C-3.35 1.34 -1.7 0.68 0 0 Z " fill="#714E04" transform="translate(75,89)"/>
<path d="M0 0 C2.625 0.375 2.625 0.375 5 1 C4.52039103 3.23817521 4.00361555 4.99357235 2.875 7 C1.83643261 8.9618226 1.83643261 8.9618226 2.125 11.125 C3.29953652 13.64186398 4.42933685 14.04518226 7 15 C8.3242287 15.36784131 9.65613912 15.71202981 11 16 C9.48042234 19.86801585 7.55415052 21.85270073 4 24 C0.67308164 24.61647339 -2.6216959 24.86880372 -6 25 C-8.0411864 20.79005305 -8.60090475 17.65701183 -8 13 C-5.89289728 8.32688567 -3.64768998 3.64768998 0 0 Z M0 12 C1 15 1 15 1 15 Z " fill="#E2B117" transform="translate(143,54)"/>
<path d="M0 0 C2.59375 0.41796875 2.59375 0.41796875 5 1 C4.88648483 2.81325551 4.75887039 4.62563357 4.625 6.4375 C4.55539063 7.44683594 4.48578125 8.45617187 4.4140625 9.49609375 C4.27742188 10.32238281 4.14078125 11.14867188 4 12 C3.01 12.495 3.01 12.495 2 13 C2 12.34 2 11.68 2 11 C0.68 10.67 -0.64 10.34 -2 10 C-2.37769531 10.5775 -2.75539063 11.155 -3.14453125 11.75 C-7.59093228 17.74795549 -7.59093228 17.74795549 -11.7734375 18.49609375 C-14.6875 18.4375 -14.6875 18.4375 -17.44921875 18.18359375 C-19.9274098 18.00522472 -21.64980571 18.25696433 -24 19 C-24 17.68 -24 16.36 -24 15 C-21.34771188 13.92474806 -18.71631546 12.90543849 -16 12 C-15.690625 11.34 -15.38125 10.68 -15.0625 10 C-14 8 -14 8 -12 7.375 C-11.34 7.25125 -10.68 7.1275 -10 7 C-9.34 6.34 -8.68 5.68 -8 5 C-7.195625 4.690625 -6.39125 4.38125 -5.5625 4.0625 C-2.95955827 3.20142906 -2.95955827 3.20142906 -1.5 1.3125 C-1.005 0.879375 -0.51 0.44625 0 0 Z " fill="#EDB000" transform="translate(100,74)"/>
<path d="M0 0 C0.43957031 0.47050781 0.87914063 0.94101562 1.33203125 1.42578125 C3.36927194 3.34851661 5.37802622 4.07876597 8 5 C7.54625 5.433125 7.0925 5.86625 6.625 6.3125 C4.79975666 8.10798342 4.79975666 8.10798342 3 11 C3.66 10.67 4.32 10.34 5 10 C5.99 10 6.98 10 8 10 C8 10.99 8 11.98 8 13 C7.15695313 13.03738281 6.31390625 13.07476562 5.4453125 13.11328125 C3.80175781 13.21189453 3.80175781 13.21189453 2.125 13.3125 C1.03445312 13.37050781 -0.05609375 13.42851563 -1.1796875 13.48828125 C-2.57574219 13.74158203 -2.57574219 13.74158203 -4 14 C-4.99 15.485 -4.99 15.485 -6 17 C-6.78375 16.979375 -7.5675 16.95875 -8.375 16.9375 C-11.17841857 16.7258565 -11.17841857 16.7258565 -13.3125 19 C-13.869375 19.66 -14.42625 20.32 -15 21 C-15.99 20.67 -16.98 20.34 -18 20 C-17.01 18.35 -16.02 16.7 -15 15 C-15.99 14.34 -16.98 13.68 -18 13 C-16.68 12.67 -15.36 12.34 -14 12 C-13.67 9.03 -13.34 6.06 -13 3 C-12.67 3.66 -12.34 4.32 -12 5 C-9.83286383 6.20402775 -9.83286383 6.20402775 -7 6 C-4.41677936 4.25111149 -2.20877994 2.19604922 0 0 Z M-12 10 C-11.67 10.66 -11.34 11.32 -11 12 C-10.67 11.34 -10.34 10.68 -10 10 C-10.66 10 -11.32 10 -12 10 Z " fill="#E8B413" transform="translate(111,58)"/>
<path d="M0 0 C0.99 0.33 1.98 0.66 3 1 C3.28571429 9.57142857 3.28571429 9.57142857 1 13 C0.195625 12.979375 -0.60875 12.95875 -1.4375 12.9375 C-3.93354885 12.70366379 -3.93354885 12.70366379 -5 14 C-6.32 13.34 -7.64 12.68 -9 12 C-9.33 12.99 -9.66 13.98 -10 15 C-10.66 15 -11.32 15 -12 15 C-12.33 14.34 -12.66 13.68 -13 13 C-13.66 13 -14.32 13 -15 13 C-15.33 12.01 -15.66 11.02 -16 10 C-17.32 10 -18.64 10 -20 10 C-20.66 10 -21.32 10 -22 10 C-22.33 10.66 -22.66 11.32 -23 12 C-23.99 11.67 -24.98 11.34 -26 11 C-27.32 11 -28.64 11 -30 11 C-29.33333333 9.66666667 -28.66666667 8.33333333 -28 7 C-27.113125 7.20625 -26.22625 7.4125 -25.3125 7.625 C-21.71900316 8.03181096 -20.21645126 7.47782896 -17 6 C-16.01 6 -15.02 6 -14 6 C-14 5.01 -14 4.02 -14 3 C-13.37351563 3.0721875 -12.74703125 3.144375 -12.1015625 3.21875 C-11.28429687 3.3115625 -10.46703125 3.404375 -9.625 3.5 C-8.40683594 3.63921875 -8.40683594 3.63921875 -7.1640625 3.78125 C-5.03087175 4.03352351 -5.03087175 4.03352351 -3 4 C-1.35405861 2.60411246 -1.35405861 2.60411246 0 1 C0 0.67 0 0.34 0 0 Z M-12 5 C-11 8 -11 8 -11 8 Z " fill="#DE9F00" transform="translate(189,74)"/>
<path d="M0 0 C1.32 0 2.64 0 4 0 C4.33 0.66 4.66 1.32 5 2 C5.61875 1.814375 6.2375 1.62875 6.875 1.4375 C9 1 9 1 11 2 C11.99444068 5.34493684 12.10348268 7.68955197 11 11 C8.37582066 11.59981242 6.07518381 12.00179009 3.375 11.9375 C0.72875002 11.79616351 0.72875002 11.79616351 -2 14 C-2.99 14 -3.98 14 -5 14 C-4.93976735 12.39479996 -4.85091401 10.79065673 -4.75 9.1875 C-4.70359375 8.29417969 -4.6571875 7.40085937 -4.609375 6.48046875 C-3.84354198 3.36313564 -2.64781249 2.67871312 0 1 C0 0.67 0 0.34 0 0 Z M-1 5 C-1 5.66 -1 6.32 -1 7 C-0.34 6.67 0.32 6.34 1 6 C0.34 5.67 -0.32 5.34 -1 5 Z M8 5 C7.67 6.98 7.34 8.96 7 11 C7.66 10.01 8.32 9.02 9 8 C8.67 7.01 8.34 6.02 8 5 Z M3 8 C4 11 4 11 4 11 Z " fill="#F6BC04" transform="translate(201,69)"/>
<path d="M0 0 C0.94488281 -0.02835937 1.88976562 -0.05671875 2.86328125 -0.0859375 C5.42877581 -0.0932362 7.74179252 -0.04130617 10.25 0.5 C12.328125 2.90625 12.328125 2.90625 13.25 5.5 C13.58 6.16 13.91 6.82 14.25 7.5 C8.5 7.625 8.5 7.625 6.25 6.5 C3.70384991 6.26827173 1.17603775 6.08105471 -1.375 5.9375 C-2.08140625 5.89431641 -2.7878125 5.85113281 -3.515625 5.80664062 C-5.26018537 5.70055249 -7.00506697 5.59977111 -8.75 5.5 C-8.75 6.16 -8.75 6.82 -8.75 7.5 C-10.73 7.83 -12.71 8.16 -14.75 8.5 C-15.74 6.85 -16.73 5.2 -17.75 3.5 C-11.76776007 0.39320136 -6.68567193 -0.01854555 0 0 Z M-3.75 3.5 C-3.75 3.83 -3.75 4.16 -3.75 4.5 C-0.45 4.5 2.85 4.5 6.25 4.5 C6.25 4.17 6.25 3.84 6.25 3.5 C2.95 3.5 -0.35 3.5 -3.75 3.5 Z " fill="#F2B100" transform="translate(228.75,78.5)"/>
<path d="M0 0 C-0.66 0 -1.32 0 -2 0 C-2.33 0.66 -2.66 1.32 -3 2 C-3.99 2.66 -4.98 3.32 -6 4 C-5.36191406 4.04898438 -4.72382813 4.09796875 -4.06640625 4.1484375 C-3.24011719 4.22320312 -2.41382813 4.29796875 -1.5625 4.375 C-0.73878906 4.44460937 0.08492187 4.51421875 0.93359375 4.5859375 C1.61550781 4.72257812 2.29742187 4.85921875 3 5 C3.33 5.66 3.66 6.32 4 7 C-3.73307077 12.32722653 -11.86510288 12.20299771 -21 12 C-20 9 -20 9 -17 7 C-16.38253906 6.52046875 -15.76507813 6.0409375 -15.12890625 5.546875 C-12.81825618 3.86794394 -10.47834168 2.55299573 -7.9375 1.25 C-7.08027344 0.80140625 -6.22304687 0.3528125 -5.33984375 -0.109375 C-3 -1 -3 -1 0 0 Z " fill="#5E3B05" transform="translate(190,91)"/>
<path d="M0 0 C0.33 1.32 0.66 2.64 1 4 C1.495 3.67 1.99 3.34 2.5 3 C6.17006041 1.53197584 9.0509118 1.74522012 13 2 C13.66 2.66 14.32 3.32 15 4 C12.56838906 8.74164134 12.56838906 8.74164134 9.9375 9.9375 C8.9784375 9.9684375 8.9784375 9.9684375 8 10 C7.34 9.34 6.68 8.68 6 8 C3.70409935 7.73879112 3.70409935 7.73879112 1.0625 7.83984375 C-0.40316406 7.8562793 -0.40316406 7.8562793 -1.8984375 7.87304688 C-2.92195313 7.89431641 -3.94546875 7.91558594 -5 7.9375 C-7.02076316 7.97185806 -9.04160348 8.00201589 -11.0625 8.02734375 C-12.41021484 8.05429321 -12.41021484 8.05429321 -13.78515625 8.08178711 C-16 8 -16 8 -18 7 C-18 6.34 -18 5.68 -18 5 C-11.565 4.505 -11.565 4.505 -5 4 C-5 3.34 -5 2.68 -5 2 C-3.35 1.34 -1.7 0.68 0 0 Z " fill="#875A02" transform="translate(75,89)"/>
<path d="M0 0 C0.83660156 0.00386719 1.67320313 0.00773437 2.53515625 0.01171875 C3.36402344 0.00785156 4.19289063 0.00398438 5.046875 0 C5.84480469 0.00128906 6.64273438 0.00257812 7.46484375 0.00390625 C8.5628833 0.00559814 8.5628833 0.00559814 9.68310547 0.00732422 C11.66015625 0.13671875 11.66015625 0.13671875 14.66015625 1.13671875 C14.66015625 2.12671875 14.66015625 3.11671875 14.66015625 4.13671875 C10.68404839 6.85158809 6.52113648 6.36112628 1.91015625 6.26171875 C1.11738281 6.25269531 0.32460937 6.24367188 -0.4921875 6.234375 C-2.44153656 6.21088887 -4.3907295 6.17502012 -6.33984375 6.13671875 C-6.72203142 4.48057218 -7.05379477 2.81214851 -7.33984375 1.13671875 C-5.40940689 -0.79371811 -2.56459573 0.00415656 0 0 Z " fill="#845902" transform="translate(106.33984375,91.86328125)"/>
<path d="M0 0 C-0.66 4.29 -1.32 8.58 -2 13 C-3.32 12.67 -4.64 12.34 -6 12 C-8.34114367 12.27313343 -10.67750658 12.59802999 -13 13 C-12.67 9.7 -12.34 6.4 -12 3 C-10.88625 2.814375 -10.88625 2.814375 -9.75 2.625 C-7.03427622 2.12244458 -7.03427622 2.12244458 -4.875 0.9375 C-3 0 -3 0 0 0 Z M-7 4 C-6 7 -6 7 -6 7 Z " fill="#AE8100" transform="translate(145,84)"/>
<path d="M0 0 C0.8353125 0.433125 0.8353125 0.433125 1.6875 0.875 C4.08494645 2.0413253 6.51596939 3.0339881 9 4 C9 7 9 7 6.625 9.625 C2.55552916 12.88253315 -1.95600776 12.89034799 -7 13 C-8 10 -8 10 -8 7 C-4.535 6.505 -4.535 6.505 -1 6 C-0.67 4.02 -0.34 2.04 0 0 Z " fill="#FDC800" transform="translate(144,66)"/>
<path d="M0 0 C1.9375 0.8125 1.9375 0.8125 4 2 C5.49084832 6.47254497 5.49084832 10.52745503 4 15 C1.29120665 16.35439668 -1.00933268 16.06501451 -4 16 C-5.24386556 12.26840331 -4.77811718 9.81984796 -4 6 C-1.50907189 4.75453595 -0.58919267 5.2232422 2 6 C1.34 4.02 0.68 2.04 0 0 Z " fill="#F4B700" transform="translate(126,67)"/>
<path d="M0 0 C0.66 0.33 1.32 0.66 2 1 C2.99 1.33 3.98 1.66 5 2 C6.66933058 2.6599679 8.3364521 3.32558869 10 4 C8.40044537 6.6475387 7.45174548 8.21357862 5 10 C2.12503372 10.39552051 -0.48732573 10.31781746 -3.37890625 10.11328125 C-5.85561165 10.00624033 -7.65151897 10.26506359 -10 11 C-10 9.68 -10 8.36 -10 7 C-7.34771188 5.92474806 -4.71631546 4.90543849 -2 4 C-0.79117904 1.99983534 -0.79117904 1.99983534 0 0 Z " fill="#C79400" transform="translate(86,82)"/>
<path d="M0 0 C-0.66 0 -1.32 0 -2 0 C-1.43628586 3.26954202 -0.50037734 4.82575883 2 7 C-0.69073827 9.69073827 -2.05362475 10.00425593 -5.9375 10.3125 C-9.30674327 10.19284463 -11.9561819 9.52190905 -15 8 C-13.04783565 6.04783565 -11.46800047 5.15173355 -9 4 C-9 3.34 -9 2.68 -9 2 C-3.375 -1.125 -3.375 -1.125 0 0 Z " fill="#936801" transform="translate(198,87)"/>
<path d="M0 0 C2.4375 0.6875 2.4375 0.6875 5 2 C5.5 4.5 5.5 4.5 6 7 C8.47636012 8.37466625 8.47636012 8.37466625 11 9 C10.67 9.66 10.34 10.32 10 11 C7.53125 11.66796875 7.53125 11.66796875 4.5 12.1875 C3.4996875 12.36667969 2.499375 12.54585937 1.46875 12.73046875 C0.6540625 12.81941406 -0.160625 12.90835938 -1 13 C-1.33 12.67 -1.66 12.34 -2 12 C-1.9140625 10.0390625 -1.9140625 10.0390625 -1.625 7.625 C-1.48964844 6.43777344 -1.48964844 6.43777344 -1.3515625 5.2265625 C-1 3 -1 3 0 0 Z M4 9 C5 11 5 11 5 11 Z " fill="#8A6000" transform="translate(146,84)"/>
<path d="M0 0 C2.97 0.495 2.97 0.495 6 1 C5.34 3.97 4.68 6.94 4 10 C3.34 10 2.68 10 2 10 C1.34 11.32 0.68 12.64 0 14 C-0.99 14 -1.98 14 -3 14 C-3 13.34 -3 12.68 -3 12 C-3.66 11.67 -4.32 11.34 -5 11 C-4.35474023 9.5414128 -3.7087728 8.08313863 -3.0625 6.625 C-2.70285156 5.81289063 -2.34320313 5.00078125 -1.97265625 4.1640625 C-1.3430097 2.76316215 -0.68687358 1.37374716 0 0 Z " fill="#B8911C" transform="translate(197,36)"/>
<path d="M0 0 C0.33 0.66 0.66 1.32 1 2 C3.02463255 2.65213292 3.02463255 2.65213292 5 3 C3.125 6.875 3.125 6.875 2 8 C2.99 8.33 3.98 8.66 5 9 C4.34 9.66 3.68 10.32 3 11 C3.99 11 4.98 11 6 11 C6.66 10.01 7.32 9.02 8 8 C8.66 8.33 9.32 8.66 10 9 C8.8125 11.5 8.8125 11.5 7 14 C5.33388095 14.042721 3.66617115 14.04063832 2 14 C-0.31377147 15.89584109 -0.31377147 15.89584109 -2 18 C-2.99 17.67 -3.98 17.34 -5 17 C-4.01 15.35 -3.02 13.7 -2 12 C-2.99 11.34 -3.98 10.68 -5 10 C-3.68 9.67 -2.36 9.34 -1 9 C-0.67 6.03 -0.34 3.06 0 0 Z " fill="#F7BF0F" transform="translate(98,61)"/>
<path d="M0 0 C0.33 0.99 0.66 1.98 1 3 C-0.1875 4.9375 -0.1875 4.9375 -2 7 C-2.598125 7.721875 -3.19625 8.44375 -3.8125 9.1875 C-6.51102506 11.42342076 -8.55687536 11.68698867 -12 12 C-12 12.66 -12 13.32 -12 14 C-14.64 14 -17.28 14 -20 14 C-20 13.01 -20 12.02 -20 11 C-18.4840625 10.5978125 -18.4840625 10.5978125 -16.9375 10.1875 C-10.38630414 8.28169757 -5.62709781 6.17146226 -1 1 C-0.67 0.67 -0.34 0.34 0 0 Z " fill="#ECBD0E" transform="translate(204,58)"/>
<path d="M0 0 C0.33 0.66 0.66 1.32 1 2 C4.465 1.505 4.465 1.505 8 1 C6.125 5.75 6.125 5.75 5 8 C3.54054712 7.91291331 2.08234132 7.80473093 0.625 7.6875 C-0.18710938 7.62949219 -0.99921875 7.57148437 -1.8359375 7.51171875 C-4 7 -4 7 -6 4 C-4.03617993 2.49440461 -2.21736634 1.10868317 0 0 Z " fill="#D39D00" transform="translate(121,81)"/>
<path d="M0 0 C0.33 0.66 0.66 1.32 1 2 C3.02463255 2.65213292 3.02463255 2.65213292 5 3 C3.02 3.66 1.04 4.32 -1 5 C-1 5.66 -1 6.32 -1 7 C-2.98 7.33 -4.96 7.66 -7 8 C-7.99 6.35 -8.98 4.7 -10 3 C-3.375 0 -3.375 0 0 0 Z " fill="#EAAA00" transform="translate(221,79)"/>
<path d="M0 0 C1.32 0 2.64 0 4 0 C4.33 0.99 4.66 1.98 5 3 C7.97 3.495 7.97 3.495 11 4 C9.63016497 7.16115776 9.0109362 7.9927092 6 10 C5.01 10 4.02 10 3 10 C3 9.34 3 8.68 3 8 C2.01 7.67 1.02 7.34 0 7 C0.185625 6.21625 0.37125 5.4325 0.5625 4.625 C1.25962266 2.02910225 1.25962266 2.02910225 0 0 Z " fill="#BC7F00" transform="translate(196,84)"/>
<path d="M0 0 C0.66 0.33 1.32 0.66 2 1 C1.55530671 6.03985731 -0.71343362 8.37634988 -4 12 C-4.99 11.67 -5.98 11.34 -7 11 C-7.66 11 -8.32 11 -9 11 C-7.59155282 7.78475695 -5.89655214 5.67816132 -3.375 3.25 C-2.74335937 2.63640625 -2.11171875 2.0228125 -1.4609375 1.390625 C-0.73777344 0.70226563 -0.73777344 0.70226563 0 0 Z " fill="#D3A71D" transform="translate(118,49)"/>
<path d="M0 0 C0.66 0 1.32 0 2 0 C3.63727927 2.50407418 4.00195201 3.90825552 3.9375 6.9375 C2.77877523 10.7226676 0.9488901 12.42917274 -2 15 C-2.99 14.01 -3.98 13.02 -5 12 C-4.360625 11.319375 -3.72125 10.63875 -3.0625 9.9375 C-0.6741507 6.53591161 -0.32122847 4.09566299 0 0 Z " fill="#E7B416" transform="translate(153,56)"/>
<path d="M0 0 C-0.66 0 -1.32 0 -2 0 C-2.33 0.66 -2.66 1.32 -3 2 C-3.99 2.66 -4.98 3.32 -6 4 C-5.36191406 4.04898438 -4.72382813 4.09796875 -4.06640625 4.1484375 C-3.24011719 4.22320312 -2.41382813 4.29796875 -1.5625 4.375 C-0.73878906 4.44460937 0.08492187 4.51421875 0.93359375 4.5859375 C1.95646484 4.79089844 1.95646484 4.79089844 3 5 C3.33 5.66 3.66 6.32 4 7 C0.81434478 7.97792207 -1.81321089 8.04657813 -5.125 7.75 C-5.99382812 7.68296875 -6.86265625 7.6159375 -7.7578125 7.546875 C-10 7 -10 7 -12 4 C-10.56988027 3.13353333 -9.13059381 2.28218171 -7.6875 1.4375 C-6.48673828 0.72400391 -6.48673828 0.72400391 -5.26171875 -0.00390625 C-3 -1 -3 -1 0 0 Z " fill="#7D3401" transform="translate(190,91)"/>
<path d="M0 0 C2.97 0.33 5.94 0.66 9 1 C9 1.66 9 2.32 9 3 C8.01 3 7.02 3 6 3 C5.34 5.97 4.68 8.94 4 12 C3.34 12 2.68 12 2 12 C2 10.02 2 8.04 2 6 C1.34 6 0.68 6 0 6 C-1 3 -1 3 0 0 Z M2 2 C3 5 3 5 3 5 Z " fill="#EDAF00" transform="translate(175,77)"/>
<path d="M0 0 C0.74886475 0.00523682 1.49772949 0.01047363 2.26928711 0.01586914 C3.07817383 0.0190918 3.88706055 0.02231445 4.72045898 0.02563477 C5.5705957 0.03401367 6.42073242 0.04239258 7.29663086 0.05102539 C8.15063477 0.05553711 9.00463867 0.06004883 9.88452148 0.06469727 C12.00108749 0.07652166 14.11761771 0.0944577 16.23413086 0.11352539 C16.23413086 0.77352539 16.23413086 1.43352539 16.23413086 2.11352539 C12.68463052 3.27658982 9.67589138 3.03717588 5.98413086 2.67602539 C4.90647461 2.57418945 3.82881836 2.47235352 2.71850586 2.36743164 C1.89866211 2.28364258 1.07881836 2.19985352 0.23413086 2.11352539 C-0.42586914 3.43352539 -1.08586914 4.75352539 -1.76586914 6.11352539 C-2.14805681 4.45737882 -2.47982016 2.78895515 -2.76586914 1.11352539 C-1.76586914 0.11352539 -1.76586914 0.11352539 0 0 Z " fill="#9D6802" transform="translate(101.765869140625,91.886474609375)"/>
<path d="M0 0 C0.66 0.66 1.32 1.32 2 2 C-0.47404048 4.47404048 -1.54244635 4.62417895 -5 5 C-7.69877747 4.78970565 -10.32002085 4.40881038 -13 4 C-8.63577725 -0.36422275 -5.89851219 -0.58018153 0 0 Z " fill="#966A03" transform="translate(88,91)"/>
<path d="M0 0 C2 1.3125 2 1.3125 4 3 C4 3.99 4 4.98 4 6 C3.01 6.495 3.01 6.495 2 7 C-0.125 6.0625 -0.125 6.0625 -2 5 C-2.15149298 8.62885324 -2.15149298 8.62885324 -1 12 C-2.32 11.67 -3.64 11.34 -5 11 C-5.3125 7.75 -5.3125 7.75 -5 4 C-2.5 1.5625 -2.5 1.5625 0 0 Z M1 3 C2 5 2 5 2 5 Z " fill="#E9BA12" transform="translate(164,60)"/>
<path d="M0 0 C1.08667969 0.20367187 2.17335938 0.40734375 3.29296875 0.6171875 C4.54013672 0.86855469 4.54013672 0.86855469 5.8125 1.125 C5.8125 2.115 5.8125 3.105 5.8125 4.125 C5.06484375 4.11339844 4.3171875 4.10179688 3.546875 4.08984375 C2.56203125 4.08082031 1.5771875 4.07179688 0.5625 4.0625 C-0.41203125 4.05089844 -1.3865625 4.03929688 -2.390625 4.02734375 C-4.84508678 4.11304423 -6.84918914 4.41793934 -9.1875 5.125 C-9.1875 3.805 -9.1875 2.485 -9.1875 1.125 C-5.43214902 -1.37856732 -4.31860586 -0.8358592 0 0 Z " fill="#AF7E01" transform="translate(85.1875,87.875)"/>
<path d="M0 0 C3.875 1.75 3.875 1.75 5 4 C5.66 4.33 6.32 4.66 7 5 C4.89829344 5.53067341 2.79352402 6.04922857 0.6875 6.5625 C-0.48425781 6.85253906 -1.65601563 7.14257812 -2.86328125 7.44140625 C-6 8 -6 8 -9 7 C-8.01 6.01 -7.02 5.02 -6 4 C-5.67 4.66 -5.34 5.32 -5 6 C-2.12579877 3.28395285 -2.12579877 3.28395285 0 0 Z " fill="#B78300" transform="translate(169,83)"/>
<path d="M0 0 C0.89203125 0.10183594 1.7840625 0.20367187 2.703125 0.30859375 C3.37859375 0.39238281 4.0540625 0.47617188 4.75 0.5625 C5.08 1.5525 5.41 2.5425 5.75 3.5625 C2.73509443 4.56746852 0.70818308 4.66585303 -2.4375 4.625 C-3.33855469 4.61597656 -4.23960938 4.60695313 -5.16796875 4.59765625 C-5.85503906 4.58605469 -6.54210937 4.57445313 -7.25 4.5625 C-7.25 3.9025 -7.25 3.2425 -7.25 2.5625 C-7.91 1.9025 -8.57 1.2425 -9.25 0.5625 C-5.98086376 -0.46865279 -3.38958652 -0.4013984 0 0 Z " fill="#5A3503" transform="translate(71.25,99.4375)"/>
<path d="M0 0 C0.33 0.99 0.66 1.98 1 3 C0.2575 2.979375 -0.485 2.95875 -1.25 2.9375 C-3.70462279 2.99328688 -5.66109261 3.3069904 -8 4 C-7.625 2.0625 -7.625 2.0625 -7 0 C-4.3333581 -1.33332095 -2.83319697 -0.67102033 0 0 Z M-10 2 C-9.34 2.33 -8.68 2.66 -8 3 C-8.33 3.99 -8.66 4.98 -9 6 C-9.66 6 -10.32 6 -11 6 C-11.33 6.66 -11.66 7.32 -12 8 C-12.66 7.67 -13.32 7.34 -14 7 C-12.25 3.125 -12.25 3.125 -10 2 Z " fill="#B99614" transform="translate(113,38)"/>
<path d="M0 0 C2 1 4 2 6 3 C4.125 6.875 4.125 6.875 3 8 C1.14712498 8.07226502 -0.70833878 8.0838122 -2.5625 8.0625 C-3.57441406 8.05347656 -4.58632812 8.04445313 -5.62890625 8.03515625 C-6.41136719 8.02355469 -7.19382813 8.01195313 -8 8 C-8 7.67 -8 7.34 -8 7 C-4.535 6.505 -4.535 6.505 -1 6 C-0.67 4.02 -0.34 2.04 0 0 Z " fill="#F1C00C" transform="translate(144,66)"/>
<path d="M0 0 C2.3431213 0.25561323 4.67843403 0.59270772 7 1 C7.33 1.66 7.66 2.32 8 3 C7.34 3 6.68 3 6 3 C6 3.66 6 4.32 6 5 C3.69 5.33 1.38 5.66 -1 6 C-0.67 4.02 -0.34 2.04 0 0 Z " fill="#8E6401" transform="translate(133,91)"/>
<path d="M0 0 C1.57035335 2.49409061 2.0274945 3.70443416 1.75 6.6875 C1.5025 7.450625 1.255 8.21375 1 9 C0.01 9.495 0.01 9.495 -1 10 C-1.33 9.34 -1.66 8.68 -2 8 C-2.99 7.34 -3.98 6.68 -5 6 C-3.63016497 2.83884224 -3.0109362 2.0072908 0 0 Z " fill="#BC9716" transform="translate(149,47)"/>
<path d="M0 0 C0.33 0.66 0.66 1.32 1 2 C1.804375 2.12375 2.60875 2.2475 3.4375 2.375 C6 3 6 3 7.3125 5.0625 C7.6528125 6.0215625 7.6528125 6.0215625 8 7 C5.03 6.505 5.03 6.505 2 6 C1.67 6.66 1.34 7.32 1 8 C-1 6 -1 6 -1.1875 3.4375 C-1 1 -1 1 0 0 Z " fill="#C18A00" transform="translate(98,83)"/>
<path d="M0 0 C0.66 0 1.32 0 2 0 C1.67226629 3.03153686 1.35865103 4.61573103 -0.75 6.875 C-3.59474935 8.29737468 -5.01616624 7.91172698 -8 7 C-7.67 6.34 -7.34 5.68 -7 5 C-6.38125 4.87625 -5.7625 4.7525 -5.125 4.625 C-2.32605072 3.80177962 -1.65001489 2.32502098 0 0 Z " fill="#CEA51A" transform="translate(192,48)"/>
<path d="M0 0 C0.33 0.66 0.66 1.32 1 2 C2.94973404 3.07981793 2.94973404 3.07981793 5.0625 3.4375 C5.701875 3.623125 6.34125 3.80875 7 4 C7.33 4.66 7.66 5.32 8 6 C5.35541621 7.32229189 3.32238699 7.09677194 0.375 7.0625 C-0.62789063 7.05347656 -1.63078125 7.04445313 -2.6640625 7.03515625 C-3.43492188 7.02355469 -4.20578125 7.01195313 -5 7 C-5 6.34 -5 5.68 -5 5 C-3.35 5 -1.7 5 0 5 C0 3.35 0 1.7 0 0 Z " fill="#B27901" transform="translate(105,84)"/>
<path d="M0 0 C0.66 0.33 1.32 0.66 2 1 C2 4.96 2 8.92 2 13 C1.34 11.68 0.68 10.36 0 9 C-1.32 9.33 -2.64 9.66 -4 10 C-2.8905928 6.51329166 -1.73662334 3.22515763 0 0 Z " fill="#CFA41F" transform="translate(198,45)"/>
<path d="M0 0 C2.475 0.99 2.475 0.99 5 2 C4.8125 3.875 4.8125 3.875 4 6 C1.4375 7.25 1.4375 7.25 -1 8 C-2 6 -2 6 -1.0625 2.875 C-0.5365625 1.451875 -0.5365625 1.451875 0 0 Z " fill="#BB8E00" transform="translate(146,84)"/>
<path d="M0 0 C1.32 0.33 2.64 0.66 4 1 C4 2.32 4 3.64 4 5 C2.35 5.33 0.7 5.66 -1 6 C-1.33 7.32 -1.66 8.64 -2 10 C-2.66 10 -3.32 10 -4 10 C-3.43454163 6.04179141 -2.19097652 3.3340947 0 0 Z " fill="#BA8A17" transform="translate(176,39)"/>
<path d="M0 0 C0.99 0.33 1.98 0.66 3 1 C3 3 3 3 0.6875 5.4375 C-0.199375 6.283125 -1.08625 7.12875 -2 8 C-2.598125 8.598125 -3.19625 9.19625 -3.8125 9.8125 C-4.204375 10.204375 -4.59625 10.59625 -5 11 C-5.66 10.67 -6.32 10.34 -7 10 C-4.75421558 6.59260295 -2.48862878 3.23521742 0 0 Z " fill="#EEC60F" transform="translate(179,63)"/>
<path d="M0 0 C0.33 0.66 0.66 1.32 1 2 C3.02463255 2.65213292 3.02463255 2.65213292 5 3 C4.34 4.32 3.68 5.64 3 7 C2.34 7 1.68 7 1 7 C1.33 7.99 1.66 8.98 2 10 C0.02 10.99 0.02 10.99 -2 12 C-2.99 11.34 -3.98 10.68 -5 10 C-3.68 9.67 -2.36 9.34 -1 9 C-0.67 6.03 -0.34 3.06 0 0 Z " fill="#E7C005" transform="translate(98,61)"/>
<path d="M0 0 C0.66 0.66 1.32 1.32 2 2 C4.06874034 2.6425235 4.06874034 2.6425235 6 3 C4.02 3.66 2.04 4.32 0 5 C0 5.66 0 6.32 0 7 C-3 6 -3 6 -5 5 C-5 4.34 -5 3.68 -5 3 C-2.5 1.375 -2.5 1.375 0 0 Z " fill="#D39A00" transform="translate(220,79)"/>
<path d="M0 0 C1.9375 0.6875 1.9375 0.6875 4 2 C4.75 4.625 4.75 4.625 5 7 C0.545 7.495 0.545 7.495 -4 8 C-3.67 7.01 -3.34 6.02 -3 5 C-1.35 5.33 0.3 5.66 2 6 C1.34 4.02 0.68 2.04 0 0 Z " fill="#F6BE0E" transform="translate(126,67)"/>
<path d="M0 0 C3.465 1.485 3.465 1.485 7 3 C7 3.66 7 4.32 7 5 C4.03 4.67 1.06 4.34 -2 4 C-1.34 2.68 -0.68 1.36 0 0 Z " fill="#DAA100" transform="translate(90,81)"/>
<path d="M0 0 C0.99 0.33 1.98 0.66 3 1 C3 2.98 3 4.96 3 7 C2.34 7 1.68 7 1 7 C1 6.34 1 5.68 1 5 C-0.32 5.33 -1.64 5.66 -3 6 C-2 3 -2 3 0 1 C0 0.67 0 0.34 0 0 Z " fill="#F49C00" transform="translate(189,74)"/>
<path d="M0 0 C3.80666984 1.44390925 5.26602582 3.34952803 7 7 C6.67 7.66 6.34 8.32 6 9 C5.01 8.67 4.02 8.34 3 8 C1.76132839 5.38502661 0.91496017 2.74488051 0 0 Z " fill="#433102" transform="translate(125,97)"/>
<path d="M0 0 C1.32 0 2.64 0 4 0 C2.70700306 2.88437779 1.34058637 4.87219421 -1 7 C-1.66 6.67 -2.32 6.34 -3 6 C-2.42655063 3.13275314 -2.1385485 2.1385485 0 0 Z " fill="#FDAE05" transform="translate(150,70)"/>
<path d="M0 0 C0.33 0.99 0.66 1.98 1 3 C0.4225 3.268125 -0.155 3.53625 -0.75 3.8125 C-3.0325868 5.01719859 -4.9737942 6.40798115 -7 8 C-7.66 7.67 -8.32 7.34 -9 7 C-6.19195732 4.03595495 -3.81684226 1.55500981 0 0 Z " fill="#E1B119" transform="translate(168,56)"/>
<path d="M0 0 C1.21816406 0.03480469 1.21816406 0.03480469 2.4609375 0.0703125 C3.68683594 0.09738281 3.68683594 0.09738281 4.9375 0.125 C5.87722656 0.15980469 5.87722656 0.15980469 6.8359375 0.1953125 C7.1659375 0.8553125 7.4959375 1.5153125 7.8359375 2.1953125 C3.75150635 3.72697418 0.04138093 2.82612902 -4.1640625 2.1953125 C-2.1640625 0.1953125 -2.1640625 0.1953125 0 0 Z " fill="#754B03" transform="translate(186.1640625,95.8046875)"/>
<path d="M0 0 C2.97 0.33 5.94 0.66 9 1 C9 1.99 9 2.98 9 4 C5.7 3.67 2.4 3.34 -1 3 C-0.67 2.01 -0.34 1.02 0 0 Z " fill="#BD8900" transform="translate(84,86)"/>
<path d="M0 0 C1.32 0 2.64 0 4 0 C2.9024777 2.99324263 2.32317108 3.84610901 -0.625 5.25 C-1.40875 5.4975 -2.1925 5.745 -3 6 C-1.125 1.125 -1.125 1.125 0 0 Z " fill="#CF9900" transform="translate(154,84)"/>
<path d="M0 0 C0.66 0.33 1.32 0.66 2 1 C2 1.99 2 2.98 2 4 C2.66 4.33 3.32 4.66 4 5 C1.69 4.67 -0.62 4.34 -3 4 C-2.67 3.01 -2.34 2.02 -2 1 C-1.34 0.67 -0.68 0.34 0 0 Z " fill="#D0A600" transform="translate(210,81)"/>
<path d="M0 0 C2.31 0 4.62 0 7 0 C6.34 1.32 5.68 2.64 5 4 C2.03 3.505 2.03 3.505 -1 3 C-0.67 2.01 -0.34 1.02 0 0 Z " fill="#AA7900" transform="translate(153,89)"/>
<path d="M0 0 C0.99 0 1.98 0 3 0 C2.67 1.65 2.34 3.3 2 5 C0.68 5 -0.64 5 -2 5 C-1.125 1.125 -1.125 1.125 0 0 Z " fill="#CA9100" transform="translate(142,84)"/>
<path d="M0 0 C3 1 3 1 4.125 2.9375 C4.41375 3.618125 4.7025 4.29875 5 5 C5.33 5.66 5.66 6.32 6 7 C4.02 6.34 2.04 5.68 0 5 C0 3.33333333 0 1.66666667 0 0 Z " fill="#D4A600" transform="translate(237,79)"/>
<path d="M0 0 C5.94 0 11.88 0 18 0 C18 0.33 18 0.66 18 1 C12.06 1 6.12 1 0 1 C0 0.67 0 0.34 0 0 Z " fill="#2B0800" transform="translate(137,103)"/>
<path d="M0 0 C0.33 0.66 0.66 1.32 1 2 C1.66 2 2.32 2 3 2 C3 2.66 3 3.32 3 4 C1.35 4.33 -0.3 4.66 -2 5 C-2 4.34 -2 3.68 -2 3 C-2.66 2.67 -3.32 2.34 -4 2 C-2.68 1.34 -1.36 0.68 0 0 Z " fill="#544502" transform="translate(177,95)"/>
<path d="M0 0 C0.66 0.33 1.32 0.66 2 1 C2 2.65 2 4.3 2 6 C1.01 6 0.02 6 -1 6 C-1.042721 4.33388095 -1.04063832 2.66617115 -1 1 C-0.67 0.67 -0.34 0.34 0 0 Z " fill="#EEAD00" transform="translate(197,77)"/>
<path d="M0 0 C0.99 0.66 1.98 1.32 3 2 C1.68 3.32 0.36 4.64 -1 6 C-1.99 5.67 -2.98 5.34 -4 5 C-2.68 3.35 -1.36 1.7 0 0 Z " fill="#FABE00" transform="translate(97,73)"/>
<path d="M0 0 C1.98 0 3.96 0 6 0 C5.34 1.32 4.68 2.64 4 4 C3.01 3.67 2.02 3.34 1 3 C0.34 3 -0.32 3 -1 3 C-0.67 2.01 -0.34 1.02 0 0 Z " fill="#DDAD1A" transform="translate(110,57)"/>
<path d="M0 0 C5.61 0 11.22 0 17 0 C17 0.33 17 0.66 17 1 C11.39 1 5.78 1 0 1 C0 0.67 0 0.34 0 0 Z " fill="#270000" transform="translate(143,111)"/>
<path d="M0 0 C0.33 0 0.66 0 1 0 C1.22134176 2.12368444 1.42670007 4.24904024 1.625 6.375 C1.74101562 7.55835938 1.85703125 8.74171875 1.9765625 9.9609375 C1.98429688 10.96382812 1.99203125 11.96671875 2 13 C1.34 13.66 0.68 14.32 0 15 C0 10.05 0 5.1 0 0 Z " fill="#CCAC00" transform="translate(179,47)"/>
<path d="M0 0 C5.28 0 10.56 0 16 0 C16 0.33 16 0.66 16 1 C10.72 1 5.44 1 0 1 C0 0.67 0 0.34 0 0 Z " fill="#F7B400" transform="translate(218,77)"/>
<path d="M0 0 C0.33 0 0.66 0 1 0 C1.08159574 4.16138263 0.98248524 7.9472484 0 12 C-0.33 12 -0.66 12 -1 12 C-1.08159574 7.83861737 -0.98248524 4.0527516 0 0 Z " fill="#E3B600" transform="translate(133,67)"/>
<path d="M0 0 C0.33 0 0.66 0 1 0 C1.33 3.63 1.66 7.26 2 11 C1.01 11.495 1.01 11.495 0 12 C0 8.04 0 4.08 0 0 Z " fill="#DDB107" transform="translate(201,46)"/>
<path d="M0 0 C0.66 0.33 1.32 0.66 2 1 C-1.465 3.97 -1.465 3.97 -5 7 C-3.38262276 3.76524552 -2.52370777 2.29427979 0 0 Z " fill="#C75400" transform="translate(119,45)"/>
<path d="M0 0 C3.96 0 7.92 0 12 0 C12 0.33 12 0.66 12 1 C8.04 1 4.08 1 0 1 C0 0.67 0 0.34 0 0 Z " fill="#C07F26" transform="translate(120,33)"/>
<path d="M0 0 C0 3 0 3 -1.5 4.6875 C-1.995 5.120625 -2.49 5.55375 -3 6 C-3.66 5.67 -4.32 5.34 -5 5 C-3.35 3.35 -1.7 1.7 0 0 Z " fill="#905600" transform="translate(95,88)"/>
<path d="M0 0 C0.99 0.495 0.99 0.495 2 1 C2 2.65 2 4.3 2 6 C1.34 6 0.68 6 0 6 C0 4.02 0 2.04 0 0 Z " fill="#EDC100" transform="translate(193,77)"/>
<path d="M0 0 C0.66 0.33 1.32 0.66 2 1 C1.67 1.66 1.34 2.32 1 3 C-1.0625 3.625 -1.0625 3.625 -3 4 C-2.01 2.68 -1.02 1.36 0 0 Z " fill="#CB7500" transform="translate(136,58)"/>
<path d="M0 0 C0.33 0.66 0.66 1.32 1 2 C3.02463255 2.65213292 3.02463255 2.65213292 5 3 C3.35 3.33 1.7 3.66 0 4 C0 2.68 0 1.36 0 0 Z " fill="#FF9F00" transform="translate(213,76)"/>
<path d="M0 0 C0.33 0 0.66 0 1 0 C1 2.64 1 5.28 1 8 C0.67 8 0.34 8 0 8 C0 5.36 0 2.72 0 0 Z " fill="#FFE900" transform="translate(120,72)"/>
<path d="M0 0 C0.33 1.32 0.66 2.64 1 4 C0.01 4.66 -0.98 5.32 -2 6 C-1.34 4.02 -0.68 2.04 0 0 Z " fill="#E98F05" transform="translate(157,63)"/>
<path d="M0 0 C0.33 0 0.66 0 1 0 C1 2.64 1 5.28 1 8 C0.67 8 0.34 8 0 8 C0 5.36 0 2.72 0 0 Z " fill="#F4B400" transform="translate(87,58)"/>
<path d="M0 0 C0.33 0 0.66 0 1 0 C1 2.64 1 5.28 1 8 C0.67 8 0.34 8 0 8 C0 5.36 0 2.72 0 0 Z " fill="#CF9F00" transform="translate(141,43)"/>
<path d="M0 0 C2.31 0 4.62 0 7 0 C7 0.33 7 0.66 7 1 C4.69 1 2.38 1 0 1 C0 0.67 0 0.34 0 0 Z " fill="#613C00" transform="translate(104,99)"/>
<path d="M0 0 C2.31 0 4.62 0 7 0 C7 0.33 7 0.66 7 1 C4.69 1 2.38 1 0 1 C0 0.67 0 0.34 0 0 Z " fill="#E0A900" transform="translate(152,46)"/>
<path d="M0 0 C1.98 0 3.96 0 6 0 C6 0.33 6 0.66 6 1 C4.02 1 2.04 1 0 1 C0 0.67 0 0.34 0 0 Z " fill="#4D3100" transform="translate(63,92)"/>
<path d="M0 0 C1.98 0 3.96 0 6 0 C6 0.33 6 0.66 6 1 C4.02 1 2.04 1 0 1 C0 0.67 0 0.34 0 0 Z " fill="#BFA900" transform="translate(163,91)"/>
<path d="M0 0 C1.98 0 3.96 0 6 0 C6 0.33 6 0.66 6 1 C4.02 1 2.04 1 0 1 C0 0.67 0 0.34 0 0 Z " fill="#F4B400" transform="translate(163,75)"/>
<path d="M0 0 C0.66 0.66 1.32 1.32 2 2 C1.34 2.66 0.68 3.32 0 4 C-0.33 3.34 -0.66 2.68 -1 2 C-0.67 1.34 -0.34 0.68 0 0 Z " fill="#D49B00" transform="translate(139,54)"/>
<path d="M0 0 C1.65 0 3.3 0 5 0 C5 0.33 5 0.66 5 1 C3.35 1 1.7 1 0 1 C0 0.67 0 0.34 0 0 Z " fill="#540000" transform="translate(160,110)"/>
<path d="M0 0 C1.65 0 3.3 0 5 0 C5 0.33 5 0.66 5 1 C3.35 1 1.7 1 0 1 C0 0.67 0 0.34 0 0 Z " fill="#262600" transform="translate(155,102)"/>
<path d="M0 0 C1.65 0 3.3 0 5 0 C5 0.33 5 0.66 5 1 C3.35 1 1.7 1 0 1 C0 0.67 0 0.34 0 0 Z " fill="#A17F00" transform="translate(151,96)"/>
<path d="M0 0 C0.33 0 0.66 0 1 0 C1 1.65 1 3.3 1 5 C0.67 5 0.34 5 0 5 C0 3.35 0 1.7 0 0 Z " fill="#7F3F00" transform="translate(130,92)"/>
<path d="M0 0 C1.98 0.99 1.98 0.99 4 2 C2.68 2 1.36 2 0 2 C0 1.34 0 0.68 0 0 Z " fill="#8C6100" transform="translate(159,91)"/>
<path d="M0 0 C0.33 0 0.66 0 1 0 C1 1.65 1 3.3 1 5 C0.67 5 0.34 5 0 5 C0 3.35 0 1.7 0 0 Z " fill="#877600" transform="translate(131,87)"/>
<path d="M0 0 C1.65 0 3.3 0 5 0 C5 0.33 5 0.66 5 1 C3.35 1 1.7 1 0 1 C0 0.67 0 0.34 0 0 Z " fill="#FFA100" transform="translate(220,84)"/>
<path d="M0 0 C0.33 0 0.66 0 1 0 C1 1.65 1 3.3 1 5 C0.67 5 0.34 5 0 5 C0 3.35 0 1.7 0 0 Z " fill="#FFD000" transform="translate(195,73)"/>
<path d="M0 0 C0.33 1.32 0.66 2.64 1 4 C0.34 3.01 -0.32 2.02 -1 1 C-0.67 0.67 -0.34 0.34 0 0 Z " fill="#BA9D00" transform="translate(192,54)"/>
<path d="M0 0 C0.33 0 0.66 0 1 0 C1 1.65 1 3.3 1 5 C0.67 5 0.34 5 0 5 C0 3.35 0 1.7 0 0 Z " fill="#AAAA00" transform="translate(202,41)"/>
<path d="M0 0 C1.65 0 3.3 0 5 0 C5 0.33 5 0.66 5 1 C3.35 1 1.7 1 0 1 C0 0.67 0 0.34 0 0 Z " fill="#AE5D1D" transform="translate(118,41)"/>
<path d="M0 0 C4 1 4 1 4 1 Z " fill="#350000" transform="translate(139,110)"/>
<path d="M0 0 C4 1 4 1 4 1 Z " fill="#350000" transform="translate(165,109)"/>
<path d="M0 0 C4 1 4 1 4 1 Z " fill="#252500" transform="translate(160,101)"/>
<path d="M0 0 C0.99 0.33 1.98 0.66 3 1 C2.01 1 1.02 1 0 1 C0 0.67 0 0.34 0 0 Z " fill="#4A2A00" transform="translate(130,100)"/>
<path d="M0 0 C4 1 4 1 4 1 Z " fill="#000000" transform="translate(57,92)"/>
<path d="M0 0 C0.66 0.33 1.32 0.66 2 1 C1.01 1 0.02 1 -1 1 C-0.67 0.67 -0.34 0.34 0 0 Z " fill="#E97400" transform="translate(82,85)"/>
<path d="M0 0 C4 1 4 1 4 1 Z " fill="#FFD400" transform="translate(154,82)"/>
<path d="M0 0 C1 4 1 4 1 4 Z " fill="#FFFF00" transform="translate(104,80)"/>
<path d="M0 0 C4 1 4 1 4 1 Z " fill="#FFFF00" transform="translate(139,79)"/>
<path d="M0 0 C1 4 1 4 1 4 Z " fill="#FFC900" transform="translate(105,76)"/>
<path d="M0 0 C1 4 1 4 1 4 Z " fill="#FFAA00" transform="translate(99,57)"/>
<path d="M0 0 C0 3 0 3 0 3 Z " fill="#DF4A00" transform="translate(121,52)"/>
<path d="M0 0 C0 3 0 3 0 3 Z " fill="#EF7F00" transform="translate(188,50)"/>
<path d="M0 0 C4 1 4 1 4 1 Z " fill="#B9A90F" transform="translate(116,34)"/>
<path d="M0 0 C3 1 3 1 3 1 Z " fill="#460000" transform="translate(136,109)"/>
<path d="M0 0 C3 1 3 1 3 1 Z " fill="#464600" transform="translate(169,108)"/>
<path d="M0 0 C3 1 3 1 3 1 Z " fill="#464600" transform="translate(170,98)"/>
<path d="M0 0 C3 1 3 1 3 1 Z " fill="#8D7100" transform="translate(132,98)"/>
<path d="M0 0 C3 1 3 1 3 1 Z " fill="#AA3800" transform="translate(111,98)"/>
<path d="" fill="#C6AA00" transform="translate(0,0)"/>
<path d="M0 0 C3 1 3 1 3 1 Z " fill="#BF7100" transform="translate(169,90)"/>
<path d="M0 0 C3 1 3 1 3 1 Z " fill="#E9D400" transform="translate(173,89)"/>
<path d="M0 0 C3 1 3 1 3 1 Z " fill="#947F00" transform="translate(209,88)"/>
<path d="M0 0 C3 1 3 1 3 1 Z " fill="#A27100" transform="translate(134,84)"/>
<path d="M0 0 C3 1 3 1 3 1 Z " fill="#CD9B00" transform="translate(163,80)"/>
<path d="" fill="#FFE200" transform="translate(0,0)"/>
<path d="M0 0 C3 1 3 1 3 1 Z " fill="#E9B800" transform="translate(168,79)"/>
<path d="M0 0 C3 1 3 1 3 1 Z " fill="#FF8D00" transform="translate(234,78)"/>
<path d="M0 0 C0.33 0.66 0.66 1.32 1 2 C0.34 1.67 -0.32 1.34 -1 1 C-0.67 0.67 -0.34 0.34 0 0 Z " fill="#FFE200" transform="translate(173,77)"/>
<path d="M0 0 C3 1 3 1 3 1 Z " fill="#FFB800" transform="translate(181,76)"/>
<path d="" fill="#FFFF00" transform="translate(0,0)"/>
<path d="M0 0 C3 1 3 1 3 1 Z " fill="#FFB800" transform="translate(198,70)"/>
<path d="" fill="#FFE200" transform="translate(0,0)"/>
<path d="" fill="#FFB800" transform="translate(0,0)"/>
<path d="M0 0 C0.66 0 1.32 0 2 0 C1.67 0.66 1.34 1.32 1 2 C0.67 1.34 0.34 0.68 0 0 Z " fill="#FFE900" transform="translate(127,65)"/>
<path d="" fill="#FF7F00" transform="translate(0,0)"/>
<path d="" fill="#8D8D00" transform="translate(0,0)"/>
<path d="" fill="#E2C600" transform="translate(0,0)"/>
<path d="" fill="#8D6300" transform="translate(0,0)"/>
<path d="" fill="#D4B800" transform="translate(0,0)"/>
<path d="" fill="#E26300" transform="translate(0,0)"/>
<path d="M0 0 C3 1 3 1 3 1 Z " fill="#8D6300" transform="translate(115,42)"/>
<path d="" fill="#8D6300" transform="translate(0,0)"/>
<path d="" fill="#B8B800" transform="translate(0,0)"/>
<path d="M0 0 C3 1 3 1 3 1 Z " fill="#AAAA00" transform="translate(199,35)"/>
<path d="M0 0 C3 1 3 1 3 1 Z " fill="#947F00" transform="translate(113,35)"/>
<path d="M0 0 C2 1 2 1 2 1 Z " fill="#550000" transform="translate(172,107)"/>
<path d="M0 0 C2 1 2 1 2 1 Z " fill="#7F0000" transform="translate(179,104)"/>
<path d="M0 0 C2 1 2 1 2 1 Z " fill="#6A0000" transform="translate(181,103)"/>
<path d="M0 0 C2 1 2 1 2 1 Z " fill="#6A6A00" transform="translate(183,102)"/>
<path d="M0 0 C2 1 2 1 2 1 Z " fill="#6A6A00" transform="translate(62,102)"/>
<path d="M0 0 C2 1 2 1 2 1 Z " fill="#7F7F00" transform="translate(77,101)"/>
<path d="M0 0 C2 1 2 1 2 1 Z " fill="#AAAA00" transform="translate(79,100)"/>
<path d="M0 0 C2 1 2 1 2 1 Z " fill="#6A2A00" transform="translate(168,99)"/>
<path d="M0 0 C2 1 2 1 2 1 Z " fill="#AAAA00" transform="translate(102,98)"/>
<path d="M0 0 C2 1 2 1 2 1 Z " fill="#D42A00" transform="translate(137,97)"/>
<path d="" fill="#552A00" transform="translate(0,0)"/>
<path d="M0 0 C2 1 2 1 2 1 Z " fill="#7F0000" transform="translate(156,95)"/>
<path d="" fill="#3F3F00" transform="translate(0,0)"/>
<path d="M0 0 C2 1 2 1 2 1 Z " fill="#BFBF00" transform="translate(205,90)"/>
<path d="M0 0 C2 1 2 1 2 1 Z " fill="#949400" transform="translate(207,89)"/>
<path d="" fill="#BFBF00" transform="translate(0,0)"/>
<path d="M0 0 C2 1 2 1 2 1 Z " fill="#FFBF00" transform="translate(212,87)"/>
<path d="M0 0 C2 1 2 1 2 1 Z " fill="#FF7F00" transform="translate(239,86)"/>
<path d="" fill="#7F7F00" transform="translate(0,0)"/>
<path d="M0 0 C2 1 2 1 2 1 Z " fill="#FF7F00" transform="translate(148,83)"/>
<path d="" fill="#FFBF00" transform="translate(0,0)"/>
<path d="M0 0 C2 1 2 1 2 1 Z " fill="#FFBF00" transform="translate(142,82)"/>
<path d="M0 0 C2 1 2 1 2 1 Z " fill="#FF0000" transform="translate(158,81)"/>
<path d="" fill="#FF9400" transform="translate(0,0)"/>
<path d="M0 0 C2 1 2 1 2 1 Z " fill="#FFD400" transform="translate(143,78)"/>
<path d="" fill="#FFFF00" transform="translate(0,0)"/>
<path d="M0 0 C2 1 2 1 2 1 Z " fill="#FFBF00" transform="translate(187,75)"/>
<path d="M0 0 C2 1 2 1 2 1 Z " fill="#DFDF00" transform="translate(175,75)"/>
<path d="" fill="#FF5500" transform="translate(0,0)"/>
<path d="" fill="#FFDF00" transform="translate(0,0)"/>
<path d="M0 0 C2 1 2 1 2 1 Z " fill="#FFFF00" transform="translate(170,74)"/>
<path d="" fill="#FFD400" transform="translate(0,0)"/>
<path d="M0 0 C2 1 2 1 2 1 Z " fill="#FF9400" transform="translate(192,70)"/>
<path d="M0 0 C2 1 2 1 2 1 Z " fill="#FF9400" transform="translate(207,68)"/>
<path d="" fill="#FF9400" transform="translate(0,0)"/>
<path d="" fill="#FFBF00" transform="translate(0,0)"/>
<path d="" fill="#FF7F00" transform="translate(0,0)"/>
<path d="" fill="#FFD400" transform="translate(0,0)"/>
<path d="" fill="#949400" transform="translate(0,0)"/>
<path d="" fill="#FF5500" transform="translate(0,0)"/>
<path d="" fill="#BFBF00" transform="translate(0,0)"/>
<path d="" fill="#DFDF00" transform="translate(0,0)"/>
<path d="" fill="#D4D400" transform="translate(0,0)"/>
<path d="" fill="#DFDF00" transform="translate(0,0)"/>
<path d="" fill="#DFBF00" transform="translate(0,0)"/>
<path d="" fill="#FFFF00" transform="translate(0,0)"/>
<path d="" fill="#FFFF00" transform="translate(0,0)"/>
<path d="" fill="#BFBF00" transform="translate(0,0)"/>
<path d="" fill="#FFFF00" transform="translate(0,0)"/>
<path d="" fill="#FFBF00" transform="translate(0,0)"/>
<path d="" fill="#FFBF00" transform="translate(0,0)"/>
<path d="" fill="#FFBF00" transform="translate(0,0)"/>
<path d="" fill="#FF9400" transform="translate(0,0)"/>
<path d="" fill="#FFD400" transform="translate(0,0)"/>
<path d="" fill="#D4D400" transform="translate(0,0)"/>
<path d="" fill="#D45500" transform="translate(0,0)"/>
<path d="" fill="#7F5500" transform="translate(0,0)"/>
<path d="" fill="#BF7F00" transform="translate(0,0)"/>
<path d="" fill="#FFD400" transform="translate(0,0)"/>
<path d="" fill="#555500" transform="translate(0,0)"/>
<path d="" fill="#D45500" transform="translate(0,0)"/>
<path d="M0 0 C2 1 2 1 2 1 Z " fill="#FF9400" transform="translate(111,36)"/>
<path d="" fill="#000000" transform="translate(0,0)"/>
<path d="" fill="#000000" transform="translate(0,0)"/>
<path d="" fill="#000000" transform="translate(0,0)"/>
<path d="" fill="#7F0000" transform="translate(0,0)"/>
<path d="" fill="#7F7F00" transform="translate(0,0)"/>
<path d="" fill="#555500" transform="translate(0,0)"/>
<path d="" fill="#7F7F00" transform="translate(0,0)"/>
<path d="" fill="#FFFF00" transform="translate(0,0)"/>
<path d="" fill="#FF7F00" transform="translate(0,0)"/>
<path d="" fill="#AA5500" transform="translate(0,0)"/>
<path d="" fill="#AA5500" transform="translate(0,0)"/>
<path d="" fill="#AA5500" transform="translate(0,0)"/>
<path d="" fill="#AA5500" transform="translate(0,0)"/>
<path d="" fill="#AA5500" transform="translate(0,0)"/>
<path d="" fill="#FF0000" transform="translate(0,0)"/>
<path d="" fill="#FF0000" transform="translate(0,0)"/>
<path d="" fill="#AAAA00" transform="translate(0,0)"/>
<path d="" fill="#FFFF00" transform="translate(0,0)"/>
<path d="" fill="#7F7F00" transform="translate(0,0)"/>
<path d="" fill="#AAAA00" transform="translate(0,0)"/>
<path d="" fill="#FF7F00" transform="translate(0,0)"/>
<path d="" fill="#FF7F00" transform="translate(0,0)"/>
<path d="" fill="#FF0000" transform="translate(0,0)"/>
<path d="" fill="#FFFF00" transform="translate(0,0)"/>
<path d="" fill="#FFFF00" transform="translate(0,0)"/>
<path d="" fill="#FF7F00" transform="translate(0,0)"/>
<path d="" fill="#FF7F00" transform="translate(0,0)"/>
<path d="" fill="#AAAA00" transform="translate(0,0)"/>
<path d="" fill="#FFFF00" transform="translate(0,0)"/>
<path d="" fill="#FFFF00" transform="translate(0,0)"/>
<path d="" fill="#FF7F00" transform="translate(0,0)"/>
<path d="" fill="#FF0000" transform="translate(0,0)"/>
<path d="" fill="#FFBF00" transform="translate(0,0)"/>
<path d="" fill="#BFBF00" transform="translate(0,0)"/>
<path d="" fill="#FF7F00" transform="translate(0,0)"/>
<path d="" fill="#FFBF00" transform="translate(0,0)"/>
<path d="" fill="#FF7F00" transform="translate(0,0)"/>
<path d="" fill="#FFFF00" transform="translate(0,0)"/>
<path d="" fill="#FF7F00" transform="translate(0,0)"/>
<path d="" fill="#FFFF00" transform="translate(0,0)"/>
<path d="" fill="#FF7F00" transform="translate(0,0)"/>
<path d="" fill="#FFFF00" transform="translate(0,0)"/>
<path d="" fill="#FFAA00" transform="translate(0,0)"/>
<path d="" fill="#FF0000" transform="translate(0,0)"/>
<path d="" fill="#FFFF00" transform="translate(0,0)"/>
<path d="" fill="#FF7F00" transform="translate(0,0)"/>
<path d="" fill="#FFFF00" transform="translate(0,0)"/>
<path d="" fill="#CC9900" transform="translate(0,0)"/>
<path d="" fill="#FFAA00" transform="translate(0,0)"/>
<path d="" fill="#FFFF00" transform="translate(0,0)"/>
<path d="" fill="#FFFF00" transform="translate(0,0)"/>
<path d="" fill="#FFAA00" transform="translate(0,0)"/>
<path d="" fill="#FFFF00" transform="translate(0,0)"/>
<path d="" fill="#AAAA00" transform="translate(0,0)"/>
<path d="" fill="#FFAA00" transform="translate(0,0)"/>
<path d="" fill="#FFFF00" transform="translate(0,0)"/>
<path d="" fill="#FFBF00" transform="translate(0,0)"/>
<path d="" fill="#FFFF00" transform="translate(0,0)"/>
<path d="" fill="#FF7F00" transform="translate(0,0)"/>
<path d="" fill="#FFAA00" transform="translate(0,0)"/>
<path d="" fill="#BF7F00" transform="translate(0,0)"/>
<path d="" fill="#7F7F00" transform="translate(0,0)"/>
<path d="" fill="#FF7F00" transform="translate(0,0)"/>
<path d="" fill="#7F7F00" transform="translate(0,0)"/>
<path d="" fill="#FFFF00" transform="translate(0,0)"/>
<path d="" fill="#AAAA00" transform="translate(0,0)"/>
<path d="" fill="#FFAA00" transform="translate(0,0)"/>
<path d="" fill="#FF7F00" transform="translate(0,0)"/>
<path d="" fill="#FFFF00" transform="translate(0,0)"/>
<path d="" fill="#FFAA00" transform="translate(0,0)"/>
<path d="" fill="#FFBF00" transform="translate(0,0)"/>
<path d="" fill="#FFAA00" transform="translate(0,0)"/>
<path d="" fill="#BF7F00" transform="translate(0,0)"/>
<path d="" fill="#FFAA00" transform="translate(0,0)"/>
<path d="" fill="#FFAA00" transform="translate(0,0)"/>
<path d="" fill="#AAAA00" transform="translate(0,0)"/>
<path d="" fill="#AAAA00" transform="translate(0,0)"/>
<path d="" fill="#FFFF00" transform="translate(0,0)"/>
<path d="" fill="#FFAA00" transform="translate(0,0)"/>
<path d="" fill="#FFAA00" transform="translate(0,0)"/>
<path d="" fill="#AAAA00" transform="translate(0,0)"/>
<path d="" fill="#FFFF00" transform="translate(0,0)"/>
<path d="" fill="#BFBF00" transform="translate(0,0)"/>
<path d="" fill="#AAAA00" transform="translate(0,0)"/>
<path d="" fill="#AAAA00" transform="translate(0,0)"/>
<path d="" fill="#BF7F00" transform="translate(0,0)"/>
<path d="" fill="#AAAA00" transform="translate(0,0)"/>
<path d="" fill="#FFAA00" transform="translate(0,0)"/>
<path d="" fill="#AAAA00" transform="translate(0,0)"/>
<path d="" fill="#FFAA00" transform="translate(0,0)"/>
<path d="" fill="#AAAA00" transform="translate(0,0)"/>
<path d="" fill="#BF7F00" transform="translate(0,0)"/>
<path d="" fill="#AAAA00" transform="translate(0,0)"/>
<path d="" fill="#AAAA00" transform="translate(0,0)"/>
<path d="" fill="#FFAA00" transform="translate(0,0)"/>
<path d="" fill="#AAAA00" transform="translate(0,0)"/>
<path d="" fill="#000000" transform="translate(0,0)"/>
<path d="" fill="#FFAA00" transform="translate(0,0)"/>
<path d="" fill="#AAAA00" transform="translate(0,0)"/>
<path d="" fill="#FFAA00" transform="translate(0,0)"/>
<path d="" fill="#FFAA00" transform="translate(0,0)"/>
<path d="" fill="#FFFF00" transform="translate(0,0)"/>
<path d="" fill="#FFAA00" transform="translate(0,0)"/>
<path d="" fill="#BF7F00" transform="translate(0,0)"/>
<path d="" fill="#FFAA00" transform="translate(0,0)"/>
<path d="" fill="#AAAA00" transform="translate(0,0)"/>
<path d="" fill="#FFFF00" transform="translate(0,0)"/>
<path d="" fill="#FFAA00" transform="translate(0,0)"/>
<path d="" fill="#FFAA00" transform="translate(0,0)"/>
<path d="" fill="#AAAA00" transform="translate(0,0)"/>
<path d="" fill="#AAAA00" transform="translate(0,0)"/>
<path d="" fill="#AAAA00" transform="translate(0,0)"/>
<path d="" fill="#FFAA00" transform="translate(0,0)"/>
<path d="" fill="#BF7F00" transform="translate(0,0)"/>
<path d="" fill="#FFAA00" transform="translate(0,0)"/>
<path d="" fill="#FFAA00" transform="translate(0,0)"/>
<path d="" fill="#FFAA00" transform="translate(0,0)"/>
<path d="" fill="#FFAA00" transform="translate(0,0)"/>
<path d="" fill="#AAAA00" transform="translate(0,0)"/>
<path d="" fill="#FFFF00" transform="translate(0,0)"/>
<path d="" fill="#AAAA00" transform="translate(0,0)"/>
<path d="" fill="#7F7F00" transform="translate(0,0)"/>
<path d="" fill="#FF0000" transform="translate(0,0)"/>
<path d="" fill="#7F7F00" transform="translate(0,0)"/>
<path d="" fill="#000000" transform="translate(0,0)"/>
<path d="" fill="#7F7F00" transform="translate(0,0)"/>
</svg>
