<?xml version="1.0" encoding="UTF-8"?>
<svg version="1.1" xmlns="http://www.w3.org/2000/svg" width="906" height="360">
<path d="M0 0 C5.74742072 3.00862634 9.37498436 2.57731114 15.640625 1.3046875 C20.97362127 0.23246964 25.87965335 -0.43774882 31.328125 -0.2578125 C31.328125 3.0421875 31.328125 6.3421875 31.328125 9.7421875 C25.79270558 11.83667052 20.14047521 12.77001505 14.328125 13.7421875 C14.65425781 14.2784375 14.98039062 14.8146875 15.31640625 15.3671875 C24.34104508 31.55297042 23.89411717 51.19669314 19.5859375 68.76953125 C15.57623038 81.9873711 8.60190688 93.56990773 -0.671875 103.7421875 C-1.33445312 104.49757813 -1.99703125 105.25296875 -2.6796875 106.03125 C-11.96895892 116.0269299 -23.90524104 123.02109458 -35.859375 129.3671875 C-36.66101074 129.79314209 -37.46264648 130.21909668 -38.28857422 130.65795898 C-42.05242805 132.59738589 -45.40614795 134.24637153 -49.671875 134.7421875 C-49.671875 135.4021875 -49.671875 136.0621875 -49.671875 136.7421875 C-48.93839844 137.00773438 -48.20492188 137.27328125 -47.44921875 137.546875 C-36.62868386 142.20381407 -30.53248946 151.34233102 -25.75 161.640625 C-18.51558851 182.45266385 -22.45447216 205.36461299 -31.69140625 224.8203125 C-37.09343943 235.71672132 -43.22927949 244.93252262 -51.671875 253.7421875 C-52.455625 254.7528125 -53.239375 255.7634375 -54.046875 256.8046875 C-71.49234398 276.32699802 -100.51353795 289.93044 -126.49609375 291.96313477 C-140.49070544 292.53293612 -154.68321638 292.91023776 -165.96875 283.35546875 C-166.53078125 282.82308594 -167.0928125 282.29070312 -167.671875 281.7421875 C-168.21328125 281.24074219 -168.7546875 280.73929687 -169.3125 280.22265625 C-177.84727532 271.36459399 -180.70991185 258.36150777 -180.66259766 246.39599609 C-180.44651954 238.1249158 -179.76447016 229.94132043 -178.671875 221.7421875 C-179.31511719 222.57878906 -179.95835937 223.41539062 -180.62109375 224.27734375 C-195.88774779 244.00382252 -212.25956432 263.16649712 -232.671875 277.7421875 C-233.68822021 278.46849365 -233.68822021 278.46849365 -234.72509766 279.20947266 C-265.57897194 300.99814153 -301.65923881 316.27877153 -340.18359375 311.42578125 C-344.51171984 310.62542759 -348.57700474 309.33609347 -352.671875 307.7421875 C-353.58582031 307.3915625 -354.49976563 307.0409375 -355.44140625 306.6796875 C-365.85933923 302.07083236 -373.85704274 294.02922763 -378.671875 283.7421875 C-379.04795568 282.42027517 -379.39759967 281.08891016 -379.671875 279.7421875 C-379.03765625 279.814375 -378.4034375 279.8865625 -377.75 279.9609375 C-325.58331453 285.14878467 -276.08780968 265.0512347 -235.921875 232.47265625 C-231.58614504 228.87726774 -227.44582754 225.07629384 -223.33984375 221.22265625 C-221.14211656 219.17938134 -218.90846436 217.23069948 -216.609375 215.3046875 C-208.54444228 208.29388499 -201.67046785 199.88776256 -194.984375 191.58984375 C-192.42320439 188.4359698 -189.80452468 185.33634657 -187.171875 182.2421875 C-182.26600112 176.46712259 -177.4515793 170.62225537 -172.671875 164.7421875 C-167.43269092 158.29686032 -162.13647925 151.90795838 -156.75830078 145.57861328 C-153.85967661 142.16198018 -151.00046921 138.71731753 -148.171875 135.2421875 C-144.42566655 130.63970284 -140.60664713 126.10496339 -136.76220703 121.5847168 C-133.81228596 118.10975727 -130.91523094 114.59765677 -128.046875 111.0546875 C-124.47544731 106.6634837 -120.74071287 102.46108812 -116.92578125 98.28125 C-114.56627987 95.62323285 -112.33463385 92.88826456 -110.109375 90.1171875 C-106.87507444 86.11790455 -103.51916504 82.42617161 -99.7890625 78.88671875 C-97.96616219 77.04027545 -96.28976047 75.15498072 -94.6015625 73.1875 C-90.38603838 68.33511022 -85.8929276 63.7771587 -81.34863281 59.23364258 C-79.93267553 57.81550466 -78.52489211 56.38922085 -77.1171875 54.96289062 C-71.71476884 49.54918557 -66.1671169 44.51393998 -60.18310547 39.74926758 C-57.58859755 37.67562869 -55.06659108 35.53077078 -52.546875 33.3671875 C-47.81424178 29.49067462 -42.85342773 26.07928462 -37.734375 22.7421875 C-37.00009277 22.26088379 -36.26581055 21.77958008 -35.50927734 21.28369141 C-34.46247803 20.61345947 -34.46247803 20.61345947 -33.39453125 19.9296875 C-32.77328369 19.53136719 -32.15203613 19.13304688 -31.51196289 18.72265625 C-29.57958665 17.69301276 -27.80973756 17.1816321 -25.671875 16.7421875 C-31.19317337 10.65983341 -38.55073652 8.76131265 -46.546875 7.8046875 C-69.45040362 6.74885107 -91.93226606 14.71936849 -111.671875 25.7421875 C-112.61836914 26.26401611 -112.61836914 26.26401611 -113.58398438 26.79638672 C-132.51879214 37.33985129 -149.49471019 51.51426462 -162.671875 68.7421875 C-163.40921875 69.65226562 -164.1465625 70.56234375 -164.90625 71.5 C-176.50365553 86.17671665 -187.43637689 105.43069464 -185.671875 124.7421875 C-184.76031832 129.12229462 -183.50208966 131.95454795 -180.234375 135.0546875 C-175.22958685 137.42537662 -170.07114199 138.58894601 -164.671875 139.7421875 C-164.671875 140.4021875 -164.671875 141.0621875 -164.671875 141.7421875 C-175.42422793 150.59706638 -185.85738254 155.63160495 -200.078125 155.18359375 C-207.33375455 154.29241316 -212.54306436 151.59178181 -217.109375 145.8671875 C-223.85960747 135.72277034 -224.99346006 124.87372357 -223.05859375 112.96875 C-219.05813684 93.88254639 -208.20598888 77.35809193 -195.671875 62.7421875 C-194.98867187 61.93523437 -194.30546875 61.12828125 -193.6015625 60.296875 C-189.9641978 56.08894329 -186.21150257 52.23883125 -181.953125 48.66015625 C-180.28182503 47.25500508 -178.63979848 45.81483639 -177.015625 44.35546875 C-135.24361799 7.14999781 -54.07399085 -29.62653258 0 0 Z M-18.671875 26.7421875 C-27.78861599 32.2620009 -36.55813948 37.79286593 -44.671875 44.7421875 C-45.80548662 45.69200687 -46.93964021 46.6411796 -48.07421875 47.58984375 C-72.40253482 68.05242471 -91.06257549 93.24689751 -108.984375 119.3046875 C-109.83914429 120.54677979 -109.83914429 120.54677979 -110.71118164 121.81396484 C-111.23059326 122.57531738 -111.75000488 123.33666992 -112.28515625 124.12109375 C-112.74704346 124.7972876 -113.20893066 125.47348145 -113.68481445 126.17016602 C-114.76050156 127.57396732 -114.76050156 127.57396732 -114.671875 128.7421875 C-87.48026741 129.91645395 -58.5299261 113.84469262 -38.93359375 96.2890625 C-24.59989542 82.72855121 -15.88167462 66.01400765 -14.48828125 46.12109375 C-14.33232732 40.24071313 -14.91632298 34.37729274 -16.671875 28.7421875 C-17.661875 27.7521875 -17.661875 27.7521875 -18.671875 26.7421875 Z M-107.75585938 148.65673828 C-121.36784023 148.25117894 -121.36784023 148.25117894 -133.23046875 153.93212891 C-138.52273885 160.20924737 -142.15520103 167.36797067 -145.671875 174.7421875 C-146.36266199 176.06296018 -147.0582603 177.38124502 -147.76171875 178.6953125 C-156.62158947 196.28508029 -160.92000061 216.71487668 -154.671875 235.7421875 C-151.58197478 242.2011378 -147.01862171 247.3401528 -140.671875 250.7421875 C-126.88242507 255.59341567 -111.63219618 253.05786329 -98.64868164 247.12719727 C-90.88448294 243.39616114 -84.66201138 239.00263689 -78.671875 232.7421875 C-77.63160156 231.73091797 -77.63160156 231.73091797 -76.5703125 230.69921875 C-64.49827382 218.27760366 -59.16414199 202.71960005 -59.31982422 185.66577148 C-59.61139475 175.58849077 -61.80879822 168.28994178 -68.671875 160.7421875 C-69.16300781 160.19691406 -69.65414062 159.65164062 -70.16015625 159.08984375 C-76.68229419 152.72954546 -87.0638939 149.01191447 -96.11816406 148.64233398 C-97.94661726 148.66613654 -99.77506748 148.69016803 -101.60351562 148.71435547 C-103.65430244 148.73295745 -105.70577497 148.71354081 -107.75585938 148.65673828 Z " fill="#D1A61C" transform="translate(379.671875,9.2578125)"/>
<path d="M0 0 C-1.31069374 4.06496261 -2.80729713 7.99149491 -4.4375 11.9375 C-10.04973738 26.42336344 -11.07063123 41.53878055 -11.46484375 56.90625 C-11.50289587 58.23947759 -11.54152686 59.57268877 -11.58070374 60.90588379 C-11.74507278 66.5215141 -11.90222275 72.13731439 -12.04956055 77.75341797 C-12.14055596 81.20700177 -12.24010336 84.6602554 -12.34482002 88.1134491 C-12.4009484 90.045714 -12.44765716 91.97824526 -12.49412537 93.9107666 C-12.69823566 100.544337 -13.29779012 106.57969433 -15 113 C5.69764325 105.52070852 19.04803809 83.80177555 30 66 C31.32 66.33 32.64 66.66 34 67 C31.77610829 86.69732656 17.55407985 101.80651419 4.43310547 115.50390625 C3.10476128 116.89063422 1.78818414 118.2886079 0.47265625 119.6875 C-15.38520127 136.13649321 -39.15524686 153.20852146 -62.76953125 154.3359375 C-74.31272658 154.54441296 -84.37388408 154.47753817 -93.4375 146.4375 C-97.58478518 141.93254341 -99.37269336 136.82404483 -101 131 C-101.77601563 131.81082031 -102.55203125 132.62164062 -103.3515625 133.45703125 C-122.17761214 152.86089263 -146.86279631 172.72005884 -175.02514648 173.41235352 C-176.40488647 173.42480103 -176.40488647 173.42480103 -177.8125 173.4375 C-178.68398682 173.44773193 -179.55547363 173.45796387 -180.45336914 173.46850586 C-189.96683845 173.33907706 -197.15529426 170.94815031 -204.046875 164.2734375 C-210.79615998 156.41726978 -210.95052837 146.90131095 -210.23632812 137.00195312 C-209.25372131 128.67821767 -205.40304907 120.87950306 -199.00390625 115.46484375 C-197.86117829 114.61642702 -196.71380783 113.77423677 -195.5625 112.9375 C-184.21843547 104.34328565 -174.71001292 94.23074017 -166 83 C-168.42163861 84.92369183 -170.82875824 86.85418412 -173.18359375 88.859375 C-182.94160459 97.0446042 -193.75406314 103.32621894 -206 107 C-206.94746094 107.29390625 -206.94746094 107.29390625 -207.9140625 107.59375 C-210.71723597 108.13968641 -213.39711362 108.09350963 -216.25 108.0625 C-217.32765625 108.05347656 -218.4053125 108.04445313 -219.515625 108.03515625 C-220.74539063 108.01775391 -220.74539063 108.01775391 -222 108 C-222.13535156 108.825 -222.27070313 109.65 -222.41015625 110.5 C-227.54630217 138.05680683 -245.89293034 164.22606932 -268.75390625 180.265625 C-280.97955864 188.4654565 -293.39511504 193.25604673 -308.37890625 190.57421875 C-314.68085528 188.564008 -319.02784239 184.38001054 -322.32421875 178.73046875 C-328.85530359 163.81209601 -324.97850724 146.23125058 -319.375 131.66796875 C-312.86210906 115.68432916 -303.44787669 100.89458638 -292 88 C-291.29617188 87.17628906 -290.59234375 86.35257812 -289.8671875 85.50390625 C-276.32481753 69.94716942 -257.88060195 53.44297203 -236.31665039 51.79492188 C-233.35415545 51.69658179 -230.40153797 51.67793241 -227.4375 51.6875 C-226.43525391 51.67138672 -225.43300781 51.65527344 -224.40039062 51.63867188 C-218.47767525 51.63477279 -214.23075613 52.16577686 -209 55 C-208.67 55.33 -208.34 55.66 -208 56 C-208.00755612 59.09801118 -208.07769865 62.18263471 -208.21484375 65.27734375 C-208.31168313 69.75836576 -207.738601 72.43588769 -205 76 C-200.39203301 79.58397432 -195.52433847 80.21750975 -189.78125 79.72265625 C-177.6803194 77.28806426 -166.89591882 72.06740709 -157.515625 63.93359375 C-157.01546875 63.62550781 -156.5153125 63.31742188 -156 63 C-155.01 63.33 -154.02 63.66 -153 64 C-148.89261324 55.57672969 -144.97472951 47.22612336 -141.875 38.375 C-139.36692763 31.36675333 -136.82670481 26.31646226 -130.3671875 22.40625 C-126.26087067 20.6913149 -122.52488154 20.21892974 -118.125 19.8125 C-117.34125 19.73064453 -116.5575 19.64878906 -115.75 19.56445312 C-113.83438471 19.36588325 -111.91730958 19.18148253 -110 19 C-110.57040472 22.64502527 -111.67766208 25.85458283 -113.06958008 29.2644043 C-119.88491169 46.06619028 -120.97091509 63.53519616 -121.2109375 81.49609375 C-121.2325016 83.06072609 -121.2325016 83.06072609 -121.25450134 84.65696716 C-121.31181485 89.01223684 -121.36641174 93.36738714 -121.40136719 97.72290039 C-121.5063208 109.81699488 -121.62327351 121.29323499 -125 133 C-114.83444055 128.18206833 -102.67521464 120.85432954 -98.5625 109.75 C-98.18544922 108.5434375 -98.18544922 108.5434375 -97.80078125 107.3125 C-95.46884046 100.57831 -90.49479161 96.38893497 -84.81640625 92.4453125 C-82.2424628 90.39722847 -80.79736677 87.72703924 -79 85 C-78.24074219 84.70738281 -77.48148438 84.41476563 -76.69921875 84.11328125 C-59.47357811 77.00863931 -44.86062594 49.16643412 -37.75 32.875 C-35.87233435 28.30756538 -34.14746287 23.69475235 -32.4375 19.0625 C-29.83608921 12.2740566 -27.10880056 6.28880095 -20.296875 2.77734375 C-13.85690664 0.59783065 -6.76461763 0 0 0 Z M-33 51 C-34.30012507 52.68614796 -35.56325508 54.40081693 -36.8125 56.125 C-40.3658761 60.95055453 -44.0905675 65.58338806 -48 70.125 C-48.51199951 70.72014404 -49.02399902 71.31528809 -49.55151367 71.9284668 C-52.50470136 75.33649708 -55.53844774 78.64917666 -58.625 81.9375 C-67.11324618 91.32250078 -75.82059496 103.0070366 -77.5 115.8125 C-76.90098901 119.63119505 -75.70945977 121.29054023 -73 124 C-69.46660429 125.76669786 -65.81826212 125.58021779 -62.078125 124.38671875 C-50.18336682 118.98649854 -42.55960159 108.65078249 -37.68359375 96.80078125 C-32.75990181 82.02970542 -32.5478301 66.41273215 -32 51 C-32.33 51 -32.66 51 -33 51 Z M-143 71 C-144.51017275 72.91898719 -145.97964393 74.85430007 -147.4375 76.8125 C-151.5478256 82.25283339 -155.92300866 87.31475113 -160.55859375 92.3203125 C-164.5706992 96.72399944 -168.31452495 101.32151268 -172 106 C-172.70253906 106.88429687 -173.40507813 107.76859375 -174.12890625 108.6796875 C-180.26620315 116.71523752 -185.90658562 125.75643366 -187 136 C-186.25137024 138.92646178 -185.38501251 140.57056297 -183.375 142.8125 C-179.89678284 144.55160858 -176.75888677 144.61509056 -173 144 C-161.28111326 139.91814057 -154.335647 129.9985212 -148.640625 119.4921875 C-142.05660049 104.5515165 -141.80771286 87.02392872 -142 71 C-142.33 71 -142.66 71 -143 71 Z M-265 91 C-265.72058594 91.70898438 -266.44117188 92.41796875 -267.18359375 93.1484375 C-279.99134076 106.60043737 -289.7136958 125.07887122 -291.3125 143.625 C-290.86999692 148.40403322 -289.72566547 152.9444982 -286.58984375 156.6796875 C-283.86787705 158.94019056 -281.48098742 158.88771008 -278 159 C-265.91971489 157.06259578 -256.16759401 147.29279224 -249 138 C-241.8006209 127.66519037 -234.69743516 115.40217395 -232 103 C-233.64352999 100.34079757 -233.64352999 100.34079757 -236 98 C-240.67108904 91.07986808 -240.07521834 82.07845002 -240 74 C-249.44475796 74 -258.75776634 84.76654586 -265 91 Z " fill="#DAAC1A" transform="translate(709,12)"/>
<path d="M0 0 C1.12350861 0.00848969 1.12350861 0.00848969 2.26971436 0.01715088 C4.654427 0.03948443 7.03761908 0.08967114 9.421875 0.140625 C11.04164491 0.16069409 12.66143846 0.17894415 14.28125 0.1953125 C18.24537466 0.23933876 22.20836732 0.30834202 26.171875 0.390625 C24.91027039 4.2375569 23.53405627 7.99131523 22.01416016 11.74389648 C15.58799866 27.88977815 12.62674044 44.54675761 18.171875 61.390625 C21.08568433 67.39483817 25.08308604 72.4352479 31.171875 75.390625 C45.93659533 80.49181791 61.59983443 77.34682386 75.296875 70.765625 C82.22912718 67.26033365 87.78649748 63.02671842 93.171875 57.390625 C93.79191406 56.78992188 94.41195313 56.18921875 95.05078125 55.5703125 C106.75817475 43.47005345 111.40150998 28.18416114 111.296875 11.765625 C111.24250069 8.95968394 111.18659708 6.15443337 111.10595703 3.34912109 C111.171875 1.390625 111.171875 1.390625 112.171875 0.390625 C114.91081585 0.30203854 117.6244077 0.27539021 120.36328125 0.29296875 C121.18311996 0.2943837 122.00295868 0.29579865 122.84764099 0.29725647 C125.47658882 0.30287211 128.10545273 0.31542721 130.734375 0.328125 C132.51236857 0.33313799 134.29036346 0.33770124 136.06835938 0.34179688 C140.43623045 0.35284661 144.80403848 0.37012169 149.171875 0.390625 C150.14083217 27.92515785 143.27801784 53.9983749 124.421875 74.953125 C123.00560166 76.43266828 121.58899422 77.9118919 120.171875 79.390625 C119.388125 80.40125 118.604375 81.411875 117.796875 82.453125 C100.35140602 101.97543552 71.33021205 115.5788775 45.34765625 117.61157227 C31.35304456 118.18137362 17.16053362 118.55867526 5.875 109.00390625 C5.31296875 108.47152344 4.7509375 107.93914062 4.171875 107.390625 C3.35976563 106.63845703 3.35976563 106.63845703 2.53125 105.87109375 C-6.00352532 97.01303149 -8.86616185 84.00994527 -8.81884766 72.04443359 C-8.60276954 63.7733533 -7.92072016 55.58975793 -6.828125 47.390625 C-7.47136719 48.22722656 -8.11460937 49.06382812 -8.77734375 49.92578125 C-24.04399779 69.65226002 -40.41581432 88.81493462 -60.828125 103.390625 C-61.50568848 103.8748291 -62.18325195 104.3590332 -62.88134766 104.85791016 C-93.73522194 126.64657903 -129.81548881 141.92720903 -168.33984375 137.07421875 C-172.66796984 136.27386509 -176.73325474 134.98453097 -180.828125 133.390625 C-181.74207031 133.04 -182.65601563 132.689375 -183.59765625 132.328125 C-194.01558923 127.71926986 -202.01329274 119.67766513 -206.828125 109.390625 C-207.20420568 108.06871267 -207.55384967 106.73734766 -207.828125 105.390625 C-207.19390625 105.4628125 -206.5596875 105.535 -205.90625 105.609375 C-153.73956453 110.79722217 -104.24405968 90.6996722 -64.078125 58.12109375 C-59.74239504 54.52570524 -55.60207754 50.72473134 -51.49609375 46.87109375 C-49.29836656 44.82781884 -47.06471436 42.87913698 -44.765625 40.953125 C-36.64109838 33.89051784 -29.76293867 25.42241359 -23.02734375 17.06640625 C-19.44446484 12.70713085 -15.67546864 8.51750795 -11.828125 4.390625 C-11.01710327 3.34491333 -11.01710327 3.34491333 -10.18969727 2.27807617 C-6.91743771 -0.33722814 -4.00460666 -0.11434084 0 0 Z " fill="#B38202" transform="translate(207.828125,183.609375)"/>
<path d="M0 0 C1.57506156 1.37146594 3.14006753 2.75282284 4.69726562 4.14453125 C6.3091304 5.55161824 7.96963634 6.88274265 9.640625 8.21875 C10.93226563 9.34796875 10.93226563 9.34796875 12.25 10.5 C12.25 11.16 12.25 11.82 12.25 12.5 C6.85161898 10.94774987 2.26341294 8.43929758 -2.625 5.75 C-8.80901986 2.42134592 -14.97672894 -0.61176272 -21.5625 -3.0625 C-22.520354 -3.42069824 -22.520354 -3.42069824 -23.49755859 -3.78613281 C-65.94864474 -18.94965626 -121.03795733 6.98295341 -158.84350586 24.71777344 C-178.81760931 34.20598482 -198.17985387 44.8345139 -217.37719727 55.79443359 C-224.89164715 60.06533522 -232.51801252 64.08901166 -240.19873047 68.05151367 C-246.75128119 71.43697964 -253.23026936 74.93659106 -259.6875 78.5 C-312.95294121 107.7340561 -368.48177013 128.95027574 -429.92504883 128.81567383 C-432.91720349 128.81252138 -435.90835755 128.83605716 -438.90039062 128.86132812 C-475.70189143 128.98210925 -514.83056314 121.96316903 -542.0625 95.3125 C-551.03843461 85.91908006 -558.31613865 74.6190073 -559.75 61.5 C-557.82150225 64.39274662 -556.74114841 66.95637698 -555.5 70.1875 C-552.2982274 77.98475799 -547.92168153 83.77990492 -541.75 89.5 C-540.821875 90.428125 -539.89375 91.35625 -538.9375 92.3125 C-513.18575199 113.89279855 -472.37726185 113.44231877 -441 110.8125 C-387.02475064 105.56614952 -337.28036885 88.64021173 -288.96697998 64.6026001 C-286.54161557 63.39636141 -284.11485296 62.19296335 -281.68798828 60.98974609 C-276.16382962 58.24950045 -270.64353932 55.50154284 -265.125 52.75 C-264.25034088 52.31414581 -263.37568176 51.87829163 -262.47451782 51.42922974 C-252.53448263 46.4706122 -242.65032559 41.42329965 -232.8318634 36.22805786 C-173.59954054 4.92811648 -62.62806692 -53.06148201 0 0 Z " fill="#835B05" transform="translate(893.75,231.5)"/>
<path d="M0 0 C-0.60362401 5.93996774 -1.41905448 11.7543152 -2.55859375 17.61328125 C-2.70780777 18.39011765 -2.85702179 19.16695404 -3.01075745 19.96733093 C-3.32409621 21.59193954 -3.63929462 23.21619052 -3.95629883 24.84008789 C-4.43943463 27.32244014 -4.91234822 29.80660405 -5.38476562 32.29101562 C-5.69209148 33.87772377 -6.00001307 35.46431667 -6.30859375 37.05078125 C-6.44825058 37.78935867 -6.58790741 38.5279361 -6.73179626 39.28889465 C-8.07506492 46.0795205 -8.07506492 46.0795205 -10 49 C-12.67790463 49.83886169 -15.1737941 49.81766414 -18 50 C-16.95382654 42.81217297 -15.78227076 35.6662617 -14.42578125 28.53125 C-14.28805298 27.80196289 -14.15032471 27.07267578 -14.00842285 26.32128906 C-13.67326288 24.54734042 -13.33677277 22.77364317 -13 21 C-13.46374023 21.9286084 -13.92748047 22.8572168 -14.40527344 23.81396484 C-16.13029494 27.26033471 -17.87085973 30.69865283 -19.61621094 34.13476562 C-20.36917041 35.62252535 -21.11790745 37.11242995 -21.86230469 38.60449219 C-22.93359868 40.74993695 -24.0198852 42.88718729 -25.109375 45.0234375 C-25.43871033 45.69120209 -25.76804565 46.35896667 -26.10736084 47.04696655 C-27.46163434 49.67270931 -28.57100893 51.69092044 -30.99316406 53.43603516 C-33 54 -33 54 -37 54 C-37.64699006 50.62522069 -38.29238432 47.25013807 -38.9375 43.875 C-39.11990234 42.92367187 -39.30230469 41.97234375 -39.49023438 40.9921875 C-40.3794961 36.33568976 -41.25124594 31.68168331 -42 27 C-44.48995724 33.51815473 -45.33460616 40.34932398 -46.41210938 47.20898438 C-46.57388672 48.16482422 -46.73566406 49.12066406 -46.90234375 50.10546875 C-47.04148193 50.97324951 -47.18062012 51.84103027 -47.32397461 52.73510742 C-48.09997965 55.33496253 -48.83366226 56.38741981 -51 58 C-54.6875 58.6875 -54.6875 58.6875 -58 59 C-53.28689118 33.24664242 -53.28689118 33.24664242 -50.75 20.4375 C-50.58725586 19.60637695 -50.42451172 18.77525391 -50.25683594 17.91894531 C-49.12013587 12.24027175 -49.12013587 12.24027175 -48 10 C-43.70120479 8.51195551 -40.60432153 8 -36 8 C-34.35 17.9 -32.7 27.8 -31 38 C-29.96359375 35.98777344 -28.9271875 33.97554688 -27.859375 31.90234375 C-26.84362951 29.93283403 -25.82735714 27.96359704 -24.81103516 25.99438477 C-24.1102896 24.63594451 -23.41008368 23.27722573 -22.71044922 21.91821289 C-21.69904435 19.95383667 -20.68563971 17.99050295 -19.671875 16.02734375 C-19.36441345 15.42913315 -19.0569519 14.83092255 -18.74017334 14.21458435 C-12.59554193 2.33382917 -12.59554193 2.33382917 -10 0.87890625 C-9.34 0.77449219 -8.68 0.67007813 -8 0.5625 C-7.34 0.44003906 -6.68 0.31757813 -6 0.19140625 C-4.00808386 0.00077365 -2.00101742 0 0 0 Z " fill="#A97902" transform="translate(425,240)"/>
<path d="M0 0 C-1.60928819 8.67823557 -3.28295289 17.34246771 -5 26 C-5.17047852 26.88204102 -5.34095703 27.76408203 -5.51660156 28.67285156 C-7.15969632 37.01391223 -8.71315003 44.78278789 -16 50 C-21.50051347 52.92623294 -27.83311468 54.07353903 -34 53 C-37.0625 51.3125 -37.0625 51.3125 -39 49 C-39.3125 46.25 -39.3125 46.25 -39 44 C-36.36 43.34 -33.72 42.68 -31 42 C-30.34 42.99 -29.68 43.98 -29 45 C-25.18922532 45.41421464 -22.07727605 45.41785975 -19 43 C-17.70768358 39.95800528 -17.70768358 39.95800528 -17 37 C-17.81984375 37.48339844 -17.81984375 37.48339844 -18.65625 37.9765625 C-22.9178681 39.83746907 -27.44510331 39.5676315 -32 39 C-34.68522398 37.20985068 -35.54160121 36.10779709 -36.75 33.1875 C-37.62833282 25.50208778 -36.82679565 18.22591673 -32.453125 11.6875 C-29.14289032 7.70350074 -26.02716944 4.60869422 -21 3 C-17.97886619 2.7764049 -15.02244901 2.84455977 -12 3 C-11.01 3 -10.02 3 -9 3 C-8.67 2.34 -8.34 1.68 -8 1 C-5.2303041 0.27113266 -2.87137415 0 0 0 Z M-25 14 C-28.20403613 18.7508122 -28.82107258 23.40177784 -28 29 C-27.34 29.99 -26.68 30.98 -26 32 C-21.7476422 31.74986131 -19.52435219 31.43113402 -16.1875 28.6875 C-12.93820766 24.69551226 -11.71909135 22.05219851 -11.75 16.875 C-11.74484375 16.00617188 -11.7396875 15.13734375 -11.734375 14.2421875 C-11.7893659 11.79796113 -11.7893659 11.79796113 -14 10 C-19.09244755 9.32100699 -21.44325526 10.34712702 -25 14 Z " fill="#B28101" transform="translate(500,236)"/>
<path d="M0 0 C3.07864927 3.36727264 3.35153357 6.51563773 3.27734375 11 C2.59535397 16.37907429 -0.02694294 20.19232801 -3.75 24 C-10.83763914 28.77052634 -19.46855515 31.1875 -28 31.1875 C-28.12375 32.46625 -28.2475 33.745 -28.375 35.0625 C-28.93571465 40.17394221 -29.91969659 45.16356474 -31 50.1875 C-35.455 50.6825 -35.455 50.6825 -40 51.1875 C-39.36510934 42.54255051 -37.7584634 34.18102682 -36.04370117 25.69921875 C-35.55965232 23.29837573 -35.08704439 20.89546212 -34.61523438 18.4921875 C-34.30797342 16.95559268 -34.00005435 15.41912929 -33.69140625 13.8828125 C-33.55174942 13.16924591 -33.41209259 12.45567932 -33.26820374 11.7204895 C-31.8515299 4.79959369 -31.8515299 4.79959369 -30 2.1875 C-28.26342773 1.36621094 -28.26342773 1.36621094 -26.18359375 0.921875 C-25.41853516 0.75429687 -24.65347656 0.58671875 -23.86523438 0.4140625 C-23.06408203 0.25679687 -22.26292969 0.09953125 -21.4375 -0.0625 C-20.66341797 -0.23523438 -19.88933594 -0.40796875 -19.09179688 -0.5859375 C-5.64118274 -3.40821457 -5.64118274 -3.40821457 0 0 Z M-22 8.1875 C-24.72106694 10.90856694 -24.60655572 13.03526311 -25.125 16.8125 C-25.29257812 18.00101563 -25.46015625 19.18953125 -25.6328125 20.4140625 C-25.75398437 21.32929688 -25.87515625 22.24453125 -26 23.1875 C-16.21023815 22.11814717 -16.21023815 22.11814717 -8 17.1875 C-5.90028234 14.44873784 -5.97222438 13.42822208 -6.375 9.9375 C-6.58125 9.03 -6.7875 8.1225 -7 7.1875 C-12.31239647 5.82534706 -16.87049676 6.43320989 -22 8.1875 Z " fill="#F7B901" transform="translate(721,178.8125)"/>
<path d="M0 0 C21.12 0 42.24 0 64 0 C53.00222755 10.99777245 40.26954562 18.87697745 24.5 19.3125 C15.85481522 19.13280794 10.78705612 17.2669752 4.54296875 11.3046875 C3 9 3 9 0 0 Z " fill="#FDBF03" transform="translate(385,184)"/>
<path d="M0 0 C2.3824438 3.04952806 1.80731187 6.30169255 1.5625 10 C1.18061579 12.86040033 0.64339697 15.67401472 0.0625 18.5 C-0.15212891 19.59054687 -0.15212891 19.59054687 -0.37109375 20.703125 C-0.71983698 22.47009071 -1.07769723 24.23525309 -1.4375 26 C-0.4475 26 0.5425 26 1.5625 26 C1.2325 28.31 0.9025 30.62 0.5625 33 C-6.96107547 35.13167972 -6.96107547 35.13167972 -9.47265625 34.4375 C-12.07312143 33.85846998 -12.89969877 34.55193508 -15.125 35.9375 C-19.43393352 38.2614192 -23.59893295 39.05933125 -28.4375 38 C-30.57986687 36.4463015 -31.32124426 35.54985823 -31.87109375 32.94921875 C-31.88052413 27.48902955 -31.30826108 24.16106816 -27.4375 20 C-23.27719098 17.18172615 -18.88938479 15.81804807 -14.0625 14.5625 C-10.1516399 13.56669303 -10.1516399 13.56669303 -7.8125 10.3125 C-7.68875 9.549375 -7.565 8.78625 -7.4375 8 C-12.762224 7.75764182 -12.762224 7.75764182 -17.4375 10 C-17.685 10.680625 -17.9325 11.36125 -18.1875 12.0625 C-19.4375 14 -19.4375 14 -21.3359375 14.48046875 C-23.36235781 14.72577226 -25.40052126 14.86858202 -27.4375 15 C-26.86772551 11.01157857 -25.90593288 8.20896274 -23.4375 5 C-16.65111668 0.43224199 -8.08886296 -3.31850788 0 0 Z M-16.4375 21.3125 C-17.118125 21.55613281 -17.79875 21.79976563 -18.5 22.05078125 C-20.6411738 23.09978374 -21.94590274 24.14379008 -23.4375 26 C-23.20992269 28.16299211 -23.20992269 28.16299211 -22.4375 30 C-19.50904334 31.23896243 -18.42699975 30.99614276 -15.375 29.875 C-12.19656436 27.8462113 -10.97123287 26.40829527 -9.4375 23 C-9.4375 22.01 -9.4375 21.02 -9.4375 20 C-12.28335459 20 -13.82184028 20.34648931 -16.4375 21.3125 Z " fill="#AD7D02" transform="translate(456.4375,247)"/>
<path d="M0 0 C2.83406076 4.25109114 2.48582984 8.27340397 1.6171875 13.1484375 C1.12503664 15.28109121 0.57851175 17.38921388 0 19.5 C-0.28617188 20.59054688 -0.28617188 20.59054688 -0.578125 21.703125 C-1.04337245 23.47106531 -1.52043593 25.23588933 -2 27 C-0.68 26.67 0.64 26.34 2 26 C1.75 29.375 1.75 29.375 1 33 C-1.82433609 35.31999036 -4.453166 35.1773417 -8 35 C-11.88320269 34.64107382 -11.88320269 34.64107382 -14.25 36.4375 C-17.78336862 38.4450958 -20.934994 39.16424267 -25 39 C-27.43063337 37.86225672 -29.11813896 36.88186104 -31 35 C-31.65275674 31.1495615 -31.75781968 27.54259738 -30.01171875 23.98828125 C-24.44334963 16.75724416 -15.51558867 14.89235304 -7 13 C-7 11.02 -7 9.04 -7 7 C-13.15500766 8.64938114 -16.49555669 10.37381498 -21 15 C-24.3125 15.8125 -24.3125 15.8125 -27 16 C-26.75402489 10.95751016 -25.13951944 8.13120635 -21.78515625 4.546875 C-15.83300571 -0.61078718 -7.56707705 -1.18744901 0 0 Z M-14.9375 21.3125 C-16.01902344 21.74175781 -17.10054687 22.17101562 -18.21484375 22.61328125 C-21.25029752 23.83637881 -21.25029752 23.83637881 -23 27 C-22.69159401 29.15274948 -22.69159401 29.15274948 -22 31 C-16.85640423 30.95173758 -16.85640423 30.95173758 -12.390625 28.7734375 C-9.7412149 25.73440827 -8.35350281 23.00636515 -8 19 C-10.31928326 19 -12.84284462 20.4681621 -14.9375 21.3125 Z " fill="#C59000" transform="translate(532,230)"/>
<path d="M0 0 C-0.33 4.29 -0.66 8.58 -1 13 C0.65 12.01 2.3 11.02 4 10 C6.31640625 9.3828125 6.31640625 9.3828125 8.5625 9.125 C9.30628906 9.02445313 10.05007813 8.92390625 10.81640625 8.8203125 C13.75884959 9.06244558 14.95913311 9.88640734 17 12 C19.39648833 21.99124181 15.16973256 34.19745826 13 44 C8.545 44.495 8.545 44.495 4 45 C4.12117187 44.35973877 4.24234375 43.71947754 4.3671875 43.05981445 C4.91612574 40.14489963 5.45812566 37.22873587 6 34.3125 C6.19078125 33.30509766 6.3815625 32.29769531 6.578125 31.25976562 C6.75859375 30.28330078 6.9390625 29.30683594 7.125 28.30078125 C7.29257812 27.40528564 7.46015625 26.50979004 7.6328125 25.5871582 C7.99717982 23.01987068 8.06528807 20.58907987 8 18 C5.71163778 17.58013054 5.71163778 17.58013054 3 18 C-4.64714846 24.00847379 -5.77914028 32.71893063 -7.19726562 41.76757812 C-7.62344161 44.00267575 -8.0352864 45.93804766 -9 48 C-11.88619583 49.47866064 -13.78711241 50 -17 50 C-16.5117923 40.95321235 -14.80599129 32.23273964 -12.98876953 23.38134766 C-12.49550278 20.97808898 -12.01073754 18.57323088 -11.52734375 16.16796875 C-11.21662991 14.63271445 -10.90544924 13.09755454 -10.59375 11.5625 C-10.37652283 10.48911377 -10.37652283 10.48911377 -10.15490723 9.39404297 C-9.5648807 6.52676067 -8.9268434 3.78053019 -8 1 C-5 0 -5 0 0 0 Z " fill="#F9BB02" transform="translate(741,171)"/>
<path d="M0 0 C1.85546875 1.16796875 1.85546875 1.16796875 3.85546875 4.16796875 C4.3046875 6.796875 4.3046875 6.796875 4.54296875 9.73046875 C4.62933594 10.70113281 4.71570313 11.67179688 4.8046875 12.671875 C4.85546875 15.16796875 4.85546875 15.16796875 3.85546875 17.16796875 C1.86181641 17.85400391 1.86181641 17.85400391 -0.73046875 18.45703125 C-1.66117188 18.67617187 -2.591875 18.8953125 -3.55078125 19.12109375 C-4.53046875 19.3428125 -5.51015625 19.56453125 -6.51953125 19.79296875 C-7.97746094 20.13714844 -7.97746094 20.13714844 -9.46484375 20.48828125 C-16.70349702 22.16796875 -16.70349702 22.16796875 -20.14453125 22.16796875 C-19.36973389 25.15949457 -19.36973389 25.15949457 -18.14453125 28.16796875 C-15.05078125 29.53255208 -15.05078125 29.53255208 -11.58203125 27.98046875 C-8.07551646 26.5830233 -8.07551646 26.5830233 -7.21875 24.1015625 C-6.86425781 23.46347656 -6.50976562 22.82539063 -6.14453125 22.16796875 C-3.98046875 21.55859375 -3.98046875 21.55859375 -1.51953125 21.41796875 C-0.70226562 21.36125 0.115 21.30453125 0.95703125 21.24609375 C1.58351563 21.2203125 2.21 21.19453125 2.85546875 21.16796875 C0.5129738 27.45571836 -2.10799402 31.27856781 -7.95703125 34.91796875 C-13.37454412 37.0424836 -17.29437603 37.68358578 -22.95703125 36.10546875 C-26.78168073 33.78068181 -27.78437516 32.40845537 -29.14453125 28.16796875 C-29.85517126 20.94312869 -28.63307449 14.70461466 -24.41015625 8.703125 C-18.13549995 1.20028985 -9.98603753 -3.87436429 0 0 Z M-16.14453125 9.16796875 C-18.50553648 12.37873353 -18.50553648 12.37873353 -19.14453125 16.16796875 C-11.71953125 14.68296875 -11.71953125 14.68296875 -4.14453125 13.16796875 C-4.14453125 11.51796875 -4.14453125 9.86796875 -4.14453125 8.16796875 C-5.95238083 5.95609036 -5.95238083 5.95609036 -8.45703125 5.85546875 C-11.78294938 6.24220342 -13.48613409 7.13919197 -16.14453125 9.16796875 Z " fill="#E8AC00" transform="translate(654.14453125,203.83203125)"/>
<path d="M0 0 C2.56239982 2.22074651 2.96293804 3.52522357 3.2265625 6.90234375 C3.13686572 12.36388128 1.71694732 17.63884558 0.5 22.9375 C0.26152344 24.00291016 0.02304687 25.06832031 -0.22265625 26.16601562 C-0.80850659 28.77890813 -1.40111458 31.39007007 -2 34 C-4.64 34.33 -7.28 34.66 -10 35 C-9.58474956 29.86400776 -9.02920244 24.8529134 -7.9375 19.8125 C-7.07356553 15.76160726 -6.82032369 12.13255502 -7 8 C-10.91374784 8.18203478 -12.68473537 8.72872578 -15.6875 11.3125 C-19.11491405 15.90063574 -19.83524778 21.51184547 -21 27 C-21.55408491 29.25208707 -22.11625189 31.50220511 -22.6875 33.75 C-22.93886719 34.75546875 -23.19023438 35.7609375 -23.44921875 36.796875 C-23.63097656 37.52390625 -23.81273437 38.2509375 -24 39 C-26.64 39.33 -29.28 39.66 -32 40 C-31.30853757 32.57463638 -29.98718861 25.36672064 -28.5 18.0625 C-28.16162109 16.3599707 -28.16162109 16.3599707 -27.81640625 14.62304688 C-26.13139205 6.26278409 -26.13139205 6.26278409 -25 4 C-23.1875 3.55078125 -23.1875 3.55078125 -21 3.3125 C-20.278125 3.22613281 -19.55625 3.13976562 -18.8125 3.05078125 C-17.9153125 3.02564453 -17.9153125 3.02564453 -17 3 C-16.67 3.33 -16.34 3.66 -16 4 C-15.0925 3.360625 -14.185 2.72125 -13.25 2.0625 C-8.42143143 -1.0017839 -5.6038847 -1.55001066 0 0 Z " fill="#E0A600" transform="translate(618,211)"/>
<path d="M0 0 C0 6.35850664 -2.43801229 9.0810237 -6.734375 13.59375 C-11.55660172 18.71528734 -15.78297853 24.3773047 -20 30 C-14.72 29.34 -9.44 28.68 -4 28 C-4.33 30.31 -4.66 32.62 -5 35 C-9.24833355 36.00717113 -13.49891924 37.00449375 -17.75 38 C-18.9565625 38.28617187 -20.163125 38.57234375 -21.40625 38.8671875 C-22.56640625 39.13789063 -23.7265625 39.40859375 -24.921875 39.6875 C-25.99018555 39.93886719 -27.05849609 40.19023437 -28.15917969 40.44921875 C-31 41 -31 41 -35 41 C-34.65068489 35.091372 -32.86253267 31.91410677 -28.9375 27.6875 C-27.93892291 26.56354838 -26.94153912 25.43853551 -25.9453125 24.3125 C-25.4493457 23.75949219 -24.95337891 23.20648438 -24.44238281 22.63671875 C-22.31351656 20.22102488 -20.31221181 17.7104339 -18.3125 15.1875 C-17.66925781 14.37667969 -17.02601563 13.56585938 -16.36328125 12.73046875 C-15.91339844 12.15941406 -15.46351563 11.58835938 -15 11 C-19.69023454 11.56606279 -24.34500026 12.18537505 -29 13 C-28.67 10.36 -28.34 7.72 -28 5 C-24.27271829 4.15808127 -20.54289997 3.3279832 -16.8125 2.5 C-15.75740234 2.26152344 -14.70230469 2.02304688 -13.61523438 1.77734375 C-12.08286133 1.43896484 -12.08286133 1.43896484 -10.51953125 1.09375 C-9.11344604 0.77954102 -9.11344604 0.77954102 -7.67895508 0.45898438 C-5.06028801 0.01032912 -2.65060917 -0.08407959 0 0 Z " fill="#D09900" transform="translate(570,221)"/>
<path d="M0 0 C-0.58489109 7.84664137 -1.96479306 15.42736434 -3.5625 23.125 C-3.79646484 24.27226562 -4.03042969 25.41953125 -4.27148438 26.6015625 C-4.84323624 29.4019798 -5.4194879 32.20138797 -6 35 C-8.97 35.66 -11.94 36.32 -15 37 C-13.90786572 28.50743342 -12.30059457 20.13081604 -10.5625 11.75 C-10.35729736 10.71351318 -10.15209473 9.67702637 -9.94067383 8.60913086 C-9.73466553 7.63983643 -9.52865723 6.67054199 -9.31640625 5.671875 C-9.13537354 4.7962793 -8.95434082 3.92068359 -8.76782227 3.01855469 C-8.51444092 2.35243164 -8.26105957 1.68630859 -8 1 C-5.07175348 0.02391783 -3.04386724 -0.08226668 0 0 Z " fill="#D79F00" transform="translate(584,218)"/>
<path d="M0 0 C1.9375 2.1875 1.9375 2.1875 1.9375 5.1875 C-9.08613628 6.09800683 -20.00555724 6.3014891 -31.0625 6.1875 C-30.7325 4.8675 -30.4025 3.5475 -30.0625 2.1875 C-27.25248805 1.50848956 -24.44024339 0.84416828 -21.625 0.1875 C-20.84189453 -0.00328125 -20.05878906 -0.1940625 -19.25195312 -0.390625 C-5.87054757 -3.4744057 -5.87054757 -3.4744057 0 0 Z " fill="#F1BB12" transform="translate(721.0625,178.8125)"/>
<path d="M0 0 C-0.14148989 1.6045556 -0.28835686 3.20863767 -0.4375 4.8125 C-0.51871094 5.70582031 -0.59992187 6.59914062 -0.68359375 7.51953125 C-1 10 -1 10 -2 13 C-4.64 13 -7.28 13 -10 13 C-9.85831863 11.56208484 -9.71148957 10.1246763 -9.5625 8.6875 C-9.48128906 7.88699219 -9.40007813 7.08648437 -9.31640625 6.26171875 C-9 4 -9 4 -8 1 C-5.07175348 0.02391783 -3.04386724 -0.08226668 0 0 Z " fill="#EFBA12" transform="translate(741,171)"/>
<path d="M0 0 C-0.33 2.97 -0.66 5.94 -1 9 C-5.455 9.495 -5.455 9.495 -10 10 C-9.9375 6.6875 -9.9375 6.6875 -9 3 C-5.9396541 1.27507776 -3.5580523 0 0 0 Z " fill="#F4B700" transform="translate(587,204)"/>
<path d="M0 0 C0.66 0.99 1.32 1.98 2 3 C-3.28 3 -8.56 3 -14 3 C-9.36944022 -1.63055978 -6.36265342 -1.41392298 0 0 Z " fill="#F1BB11" transform="translate(756,181)"/>
</svg>
